<?xml version="1.0" encoding="utf-8"?>
<!-- Generator: Adobe Illustrator 24.0.1, SVG Export Plug-In . SVG Version: 6.00 Build 0)  -->
<svg version="1.1" id="Layer_1" xmlns="http://www.w3.org/2000/svg" xmlns:xlink="http://www.w3.org/1999/xlink" x="0px" y="0px"
	 viewBox="0 0 512 512" style="enable-background:new 0 0 512 512;" xml:space="preserve">
<style type="text/css">
	.st0{fill:#424953;}
	.st1{fill:#FA8807;}
</style>
<title>Computer online approved ads</title>
<path class="st0" d="M89.2,381.2H250V455h-76.6c-3.3,0-6,2.7-6,6s2.7,6,6,6h170c3.3,0,6-2.7,6-6s-2.7-6-6-6H262v-73.8h160.8
	c25.4,0,46-20.6,46-46V91c0-25.4-20.6-46-46-46H89.2c-25.4,0-46,20.6-46,46v244.2C43.2,360.6,63.8,381.2,89.2,381.2z M89.2,57h333.7
	c18.8,0,34,15.2,34,34v202.9H55.2V91C55.2,72.2,70.4,57,89.2,57z M55.2,305.9h401.7v29.3c0,18.8-15.2,34-34,34H89.2
	c-18.8,0-34-15.2-34-34V305.9z"/>
<path class="st0" d="M135.2,215c29.9,0,54.2-24.3,54.2-54.2s-24.3-54.2-54.2-54.2c-16.7,0-32.4,7.7-42.7,20.8
	c-18.4,23.6-14.3,57.6,9.3,76.1C111.3,211,123.1,215,135.2,215z M102,134.9c14.4-18.3,40.9-21.6,59.2-7.2s21.6,40.9,7.2,59.2
	c-14.4,18.3-40.9,21.6-59.2,7.2C99,186.1,93,173.8,93,160.9C93,151.4,96.1,142.3,102,134.9z"/>
<path class="st1" d="M122.9,175.7c2.1,2.5,5.8,2.8,8.3,0.8l26.9-21.9c2.6-2.1,3-5.8,1-8.4c-2.1-2.6-5.8-3-8.4-1c0,0-0.1,0.1-0.1,0.1
	l-22.4,18.2l-7.8-9.1c-2.1-2.5-5.9-2.8-8.5-0.7c-2.5,2.1-2.8,5.9-0.7,8.5c0,0,0,0,0,0L122.9,175.7z"/>
<path class="st0" d="M87,241h95c3.3,0,6-2.7,6-6s-2.7-6-6-6H87c-3.3,0-6,2.7-6,6S83.7,241,87,241z"/>
<path class="st0" d="M87,271h56c3.3,0,6-2.7,6-6s-2.7-6-6-6H87c-3.3,0-6,2.7-6,6S83.7,271,87,271z"/>
<path class="st0" d="M242.6,206.7l-1.5,30.7c-0.1,2.8,1.7,5.4,4.4,6.1l29.7,8l16.8,25.8c1.5,2.4,4.5,3.3,7.2,2.3l28.8-11l28.8,11
	c2.6,1,5.6,0,7.2-2.3l16.8-25.8l29.7-8c2.7-0.7,4.6-3.3,4.4-6.1l-1.5-30.7l19.3-24c1.8-2.2,1.8-5.3,0-7.5l-19.3-24l1.5-30.7
	c0.1-2.8-1.7-5.4-4.4-6.1l-29.7-8l-16.8-25.8c-1.5-2.4-4.5-3.3-7.2-2.3l-28.8,11l-28.8-11c-2.6-1-5.6,0-7.2,2.3l-16.8,25.8l-29.7,8
	c-2.7,0.7-4.6,3.3-4.4,6.1l1.5,30.7l-19.3,24c-1.8,2.2-1.8,5.3,0,7.5L242.6,206.7z M253.4,156.9c0.9-1.1,1.4-2.6,1.3-4.1l-1.4-28.2
	l27.3-7.4c1.4-0.4,2.7-1.3,3.5-2.5l15.4-23.6l26.4,10.1c1.4,0.5,2.9,0.5,4.3,0l26.4-10.1l15.4,23.6c0.8,1.2,2,2.1,3.5,2.5l27.3,7.4
	l-1.4,28.2c-0.1,1.5,0.4,2.9,1.3,4.1l17.7,22l-17.7,22c-0.9,1.1-1.4,2.6-1.3,4.1l1.4,28.2l-27.3,7.4c-1.4,0.4-2.7,1.3-3.5,2.5
	l-15.4,23.6l-26.4-10.1c-1.4-0.5-2.9-0.5-4.3,0l-26.4,10.1L284,243.1c-0.8-1.2-2-2.1-3.5-2.5l-27.3-7.4l1.4-28.2
	c0.1-1.5-0.4-2.9-1.3-4.1l-17.7-22L253.4,156.9z"/>
<path class="st1" d="M288.3,205.6c2.9,0,3.8-1.4,4.1-2.5l3.1-10.7h18.3l3.1,10.7c0.3,1.2,1.3,2.5,4.1,2.5c3,0,7.3-1.9,7.3-5
	c0-0.3-0.1-0.5-0.1-0.8l-16.1-52.6c-0.9-3-4.4-4-7.5-4c-2.9,0-6.5,1.1-7.4,4l-16.1,52.4c-0.1,0.3-0.2,0.6-0.2,0.9
	C281,203.7,285.2,205.6,288.3,205.6z M298,182.9l6.6-23.2l6.6,23.2H298z"/>
<path class="st1" d="M338.3,205.6h14.7c12.9,0,20.1-6.9,20.1-19.6v-22.7c0-12.6-7.1-19.6-20.1-19.6h-14.7c-2.9,0-5.2,1.7-5.2,3.8
	v54.2C333.1,203.9,335.4,205.6,338.3,205.6z M361.3,186c0,6-2.8,9.1-8.2,9.1h-8.2v-40.9h8.2c5.5,0,8.2,3.1,8.2,9.1V186z"/>
</svg>
