<?xml version="1.0" encoding="utf-8"?>
<!-- Generator: Adobe Illustrator 18.1.1, SVG Export Plug-In . SVG Version: 6.00 Build 0)  -->
<svg version="1.1" baseProfile="tiny" id="Layer_1" xmlns="http://www.w3.org/2000/svg" xmlns:xlink="http://www.w3.org/1999/xlink"
	 x="0px" y="0px" viewBox="0 0 195.59 195.59" xml:space="preserve">
<path fill="#ECEDED" d="M189.435,98.314c0,50.841-41.214,92.06-92.06,92.06c-50.841,0-92.057-41.219-92.057-92.06
	c0-50.839,41.216-92.055,92.057-92.055C148.222,6.259,189.435,47.475,189.435,98.314z"/>
<g>
	<g>
		<g>
			<g>
				<path fill="#F68820" d="M99.485,46.869c-2.052,0-3.715-1.663-3.715-3.715V31.195c0-2.052,1.663-3.715,3.715-3.715
					c2.052,0,3.715,1.663,3.715,3.715v11.959C103.199,45.206,101.537,46.869,99.485,46.869L99.485,46.869z"/>
			</g>
			<g>
				<path fill="#F68820" d="M74.674,52.497c-1.281,0-2.53-0.667-3.22-1.856l-5.981-10.357c-1.025-1.777-0.416-4.049,1.359-5.074
					c1.772-1.032,4.047-0.416,5.077,1.357l5.981,10.357c1.025,1.777,0.416,4.049-1.359,5.074
					C75.945,52.337,75.307,52.497,74.674,52.497L74.674,52.497z"/>
			</g>
			<g>
				<path fill="#F68820" d="M56.005,69.781c-0.627,0-1.265-0.159-1.851-0.497l-10.362-5.976c-1.778-1.025-2.389-3.296-1.365-5.074
					c1.022-1.775,3.294-2.392,5.071-1.362l10.365,5.976c1.778,1.025,2.387,3.296,1.362,5.074
					C58.54,69.114,57.291,69.781,56.005,69.781L56.005,69.781z"/>
			</g>
			<g>
				<path fill="#F68820" d="M48.482,94.087H36.509c-2.049,0-3.712-1.663-3.712-3.715c0-2.052,1.663-3.715,3.712-3.715h11.973
					c2.049,0,3.714,1.663,3.714,3.715C52.196,92.424,50.531,94.087,48.482,94.087L48.482,94.087z"/>
			</g>
			<g>
				<path fill="#F68820" d="M43.75,124.878c-1.286,0-2.533-0.667-3.221-1.856c-1.027-1.778-0.418-4.049,1.36-5.074l10.365-5.986
					c1.775-1.033,4.047-0.416,5.074,1.357c1.025,1.778,0.418,4.049-1.359,5.074l-10.367,5.986
					C45.018,124.719,44.377,124.878,43.75,124.878L43.75,124.878z"/>
			</g>
			<g>
				<path fill="#F68820" d="M149.536,128.174c-0.633,0-1.27-0.16-1.856-0.499l-10.367-5.989c-1.775-1.025-2.384-3.297-1.359-5.074
					c1.027-1.775,3.299-2.389,5.077-1.357l10.367,5.989c1.775,1.025,2.384,3.297,1.359,5.074
					C152.067,127.508,150.817,128.174,149.536,128.174L149.536,128.174z"/>
			</g>
			<g>
				<path fill="#F68820" d="M158.667,97.877h-11.97c-2.05,0-3.712-1.663-3.712-3.715c0-2.052,1.663-3.714,3.712-3.714h11.97
					c2.052,0,3.715,1.662,3.715,3.714C162.382,96.215,160.719,97.877,158.667,97.877L158.667,97.877z"/>
			</g>
			<g>
				<path fill="#F68820" d="M141.072,73.07c-1.286,0-2.536-0.667-3.22-1.859c-1.027-1.775-0.418-4.047,1.359-5.071l10.367-5.986
					c1.778-1.033,4.047-0.418,5.072,1.359c1.027,1.775,0.418,4.047-1.36,5.071l-10.367,5.986
					C142.337,72.91,141.699,73.07,141.072,73.07L141.072,73.07z"/>
			</g>
			<g>
				<path fill="#F68820" d="M123.782,54.395c-0.63,0-1.27-0.16-1.853-0.499c-1.775-1.025-2.387-3.296-1.359-5.074l5.984-10.357
					c1.025-1.775,3.294-2.389,5.071-1.357c1.778,1.025,2.387,3.296,1.359,5.074l-5.981,10.357
					C126.313,53.728,125.066,54.395,123.782,54.395L123.782,54.395z"/>
			</g>
		</g>
	</g>
	<g>
		<path fill="#434953" d="M131.949,92.811c0-19.101-15.475-34.576-34.576-34.576c-19.101,0-34.574,15.475-34.574,34.576
			c0,1.137,0.225,2.211,0.332,3.317c-0.316,0.34,0.491,13.787,13.52,30.561c3.809,5.069,2.23,15.235,2.196,15.235
			c5.354,0,10.713,0,16.074,0c1.639,0,3.268,0,4.904,0c5.361,0,10.715,0,16.074,0c-0.031,0-1.61-10.166,2.196-15.235
			c13.039-16.782,13.839-30.221,13.523-30.561C131.724,95.023,131.949,93.948,131.949,92.811z M93.341,135.964v-16.558
			c0-0.335-0.081-0.667-0.233-0.964l-6.634-13.055c0.423-0.05,0.847-0.102,1.291-0.253c1.072-0.374,2.141-1.048,3.106-1.898
			c1.03,1.265,2.347,2.091,3.814,2.329c1.901,0.303,3.924-0.57,5.769-2.439c0.141,0.24,0.29,0.471,0.447,0.687
			c1.006,1.393,2.258,2.141,3.566,2.141c0.152,0,0.306-0.01,0.46-0.031c0.444-0.06,0.865-0.16,1.268-0.274l-6.504,12.793
			c-0.152,0.298-0.233,0.63-0.233,0.964v16.558H93.341z M91.3,95.483c0.042-0.039,0.089-0.092,0.209-0.092
			c0.058,0,0.128,0.01,0.219,0.037c0.539,0.154,0.753,0.437,0.769,1.004c0.026,0.863-0.442,2.021-1.202,3.142
			C90.646,97.587,90.876,95.925,91.3,95.483z M101.213,94.892c0.23-0.473,0.471-0.481,0.599-0.486
			c0.018-0.003,0.039-0.003,0.058-0.003c0.238,0,0.272,0.065,0.295,0.11c0.298,0.549-0.018,2.264-1.082,4.206
			C100.789,97.169,100.826,95.692,101.213,94.892z M125.848,94.207l-0.423,4.007l0.068,0.065
			c-0.633,3.715-3.061,13.115-12.103,24.753c-2.742,3.657-3.665,8.653-3.79,12.932h-5.884v-16.048l7.751-15.237
			c0.533-1.048,0.115-2.329-0.933-2.863c-1.014-0.515-2.246-0.126-2.802,0.857c-0.742,0.447-1.83,0.975-3.084,1.142
			c-0.837,0.115-1.561-0.617-2.018-1.25c-0.262-0.363-0.494-0.769-0.701-1.202c0.013-0.016,0.024-0.031,0.034-0.05
			c1.725-2.426,3.111-5.905,2.076-7.813c-0.45-0.831-1.302-1.244-2.308-1.224c-1.056,0.042-1.919,0.641-2.429,1.684
			c-0.823,1.694-0.68,4.554,0.194,7.06c-1.268,1.467-2.925,2.716-4.468,2.442c-1.012-0.165-1.937-0.795-2.664-1.775
			c1.388-1.697,2.311-3.683,2.264-5.317c-0.042-1.493-0.883-2.583-2.311-2.988c-0.988-0.287-1.893-0.06-2.552,0.63
			c-1.318,1.377-1.182,4.156-0.465,6.297c0.131,0.382,0.277,0.748,0.439,1.098c-0.811,0.763-1.733,1.388-2.669,1.712
			c-0.614,0.217-1.163,0.246-1.67,0.149l-0.267-0.52c-0.465-0.915-1.495-1.31-2.45-1.048c-0.107,0.01-0.212,0.042-0.316,0.089
			c-0.032,0.013-0.063,0.01-0.094,0.026c-0.021,0.01-0.034,0.031-0.055,0.044c-0.018,0.01-0.039,0.013-0.058,0.026
			c-0.024,0.018-0.034,0.044-0.058,0.063c-0.902,0.586-1.263,1.749-0.761,2.729l7.746,15.237v16.048h-3.932
			c-0.115-4.271-1.022-9.244-3.741-12.851c-9.084-11.701-11.518-21.119-12.158-24.834l0.065-0.065l-0.423-4.007
			c-0.065-0.457-0.141-0.923-0.141-1.396c0-15.784,12.832-28.616,28.616-28.616c15.784,0,28.616,12.833,28.616,28.616
			C125.989,93.284,125.916,93.75,125.848,94.207z"/>
		<path fill="#434953" d="M79.155,147.733h1.553v2.661h-1.553v2.792h1.553v2.661h-1.464c0.23,3.49,3.545,6.284,7.785,6.546
			c0.779,1.772,2.544,3.011,4.601,3.011h11.486c2.057,0,3.822-1.239,4.601-3.011c4.24-0.262,7.555-3.056,7.785-6.546h-1.281v-2.661
			h1.372v-2.792h-1.372v-2.661h1.372v-2.925H79.155V147.733z"/>
	</g>
</g>
</svg>
