<?xml version="1.0" encoding="utf-8"?>
<!-- Generator: Adobe Illustrator 18.1.1, SVG Export Plug-In . SVG Version: 6.00 Build 0)  -->
<svg version="1.1" baseProfile="tiny" id="Layer_1" xmlns="http://www.w3.org/2000/svg" xmlns:xlink="http://www.w3.org/1999/xlink"
	 x="0px" y="0px" viewBox="0 0 195.59 195.59" xml:space="preserve">
<path fill="#ECEDED" d="M192.186,98.801c0,52.083-42.218,94.307-94.304,94.307c-52.081,0-94.302-42.224-94.302-94.307
	c0-52.078,42.221-94.296,94.302-94.296C149.968,4.505,192.186,46.723,192.186,98.801z"/>
<g>
	<g>
		<path fill="#434953" d="M45.465,127.612h105.487c1.524,0,2.762-1.237,2.762-2.763v-64.27c0-1.529-1.238-2.763-2.762-2.763H45.465
			c-1.529,0-2.763,1.234-2.763,2.763v64.27C42.702,126.375,43.936,127.612,45.465,127.612z M98.21,59.472
			c0.964,0,1.745,0.782,1.745,1.746c0,0.964-0.781,1.746-1.745,1.746c-0.965,0-1.747-0.782-1.747-1.746
			C96.463,60.254,97.245,59.472,98.21,59.472z M49.576,64.458h97.263v56.363H49.576V64.458z"/>
		<path fill="#434953" d="M163.953,130.606h-45.507c-0.094,0.927-0.849,1.663-1.805,1.663H79.776c-0.955,0-1.714-0.737-1.808-1.663
			H32.465c-0.024,0.22-0.066,0.434-0.066,0.664v1.995c0,3.302,2.676,5.98,5.981,5.98h119.655c3.306,0,5.984-2.678,5.984-5.98v-1.995
			C164.019,131.039,163.98,130.825,163.953,130.606z"/>
	</g>
	<g>
		<path fill="#F68820" d="M127.007,81.192c-2.008-0.905-4.369-0.011-5.274,1.998c-0.904,2.008-0.008,4.365,2.001,5.27
			c2.003,0.902,4.365,0.011,5.269-1.998C129.906,84.456,129.01,82.094,127.007,81.192z"/>
		<path fill="#F68820" d="M53.596,68.481v48.318h12.163l-1.488-3.104l-0.628-1.333l4.371-2.972c-0.246-1.141-0.415-2.298-0.49-3.468
			l-4.7-1.117l0.11-1.462l0.294-3.719l0.119-1.476l5.132-0.38c0.358-1.127,0.825-2.236,1.374-3.326l-3.446-3.253l0.837-1.213
			l2.118-3.069l0.834-1.216l4.651,2.247c0.894-0.811,1.841-1.545,2.849-2.188l-1.366-4.55l1.328-0.642l3.374-1.607l1.328-0.632
			l2.964,4.367c1.141-0.23,2.295-0.369,3.46-0.42l1.136-4.777l1.462,0.123l3.728,0.289l1.465,0.121l0.396,5.35
			c1.068,0.356,2.126,0.803,3.154,1.323l3.406-3.612l1.216,0.836l3.077,2.126l1.218,0.83l-2.344,4.844
			c0.775,0.854,1.49,1.751,2.109,2.699l4.717-1.409l0.644,1.333l1.604,3.363l0.632,1.331l-4.376,2.98
			c0.246,1.138,0.426,2.3,0.501,3.462l4.696,1.111l-0.117,1.47l-0.297,3.72l-0.107,1.481l-5.139,0.37
			c-0.359,1.141-0.83,2.241-1.374,3.329l1.951,1.84h30.677V68.481H53.596z M136.248,86.084l-2.699,0.27
			c-0.119,0.64-0.292,1.28-0.572,1.901c-0.186,0.412-0.423,0.782-0.664,1.149c0.039,0.032,0.094,0.032,0.124,0.075l1.628,2.273
			c0.279,0.375,0.188,0.913-0.193,1.189l-2.959,2.126c-0.383,0.278-0.921,0.193-1.196-0.19l-1.584-2.198
			c-1.036,0.364-2.142,0.517-3.261,0.45c-0.013,0.048,0.017,0.097-0.004,0.142l-1.145,2.547c-0.196,0.431-0.699,0.624-1.133,0.428
			l-3.326-1.497c-0.434-0.195-0.624-0.701-0.434-1.135l1.122-2.49c-0.849-0.728-1.523-1.607-2.014-2.581
			c-0.054,0.016-0.083,0.07-0.142,0.075l-2.774,0.276c-0.47,0.051-0.889-0.292-0.936-0.766l-0.366-3.626
			c-0.054-0.466,0.297-0.892,0.763-0.94l2.702-0.271c0.119-0.637,0.293-1.275,0.572-1.893c0.186-0.415,0.423-0.784,0.665-1.154
			c-0.039-0.035-0.099-0.035-0.129-0.078l-1.627-2.268c-0.277-0.378-0.186-0.913,0.197-1.2l2.953-2.126
			c0.386-0.276,0.921-0.187,1.196,0.201l1.587,2.198c1.039-0.367,2.145-0.522,3.264-0.455c0.012-0.048-0.016-0.096,0.005-0.145
			l1.143-2.544c0.196-0.431,0.702-0.624,1.13-0.431l3.324,1.497c0.435,0.196,0.628,0.702,0.433,1.133l-1.122,2.493
			c0.85,0.731,1.528,1.607,2.016,2.587c0.054-0.019,0.083-0.072,0.142-0.078l2.774-0.27c0.469-0.056,0.886,0.289,0.94,0.755
			l0.367,3.631C137.068,85.619,136.722,86.036,136.248,86.084z"/>
		<path fill="#F68820" d="M103.101,113.711c4.898-7.115,3.019-16.935-4.192-21.907c-7.219-4.962-17.066-3.221-21.966,3.894
			c-4.647,6.748-3.177,15.933,3.16,21.101h20.161C101.32,115.918,102.284,114.898,103.101,113.711z M97.859,110.102
			c-2.98,4.325-8.902,5.425-13.236,2.437c-4.322-2.975-5.424-8.907-2.44-13.231c2.986-4.333,8.914-5.428,13.238-2.445
			C99.752,99.843,100.845,105.766,97.859,110.102z"/>
	</g>
</g>
</svg>
