<?xml version="1.0" encoding="utf-8"?>
<!-- Generator: Adobe Illustrator 18.1.1, SVG Export Plug-In . SVG Version: 6.00 Build 0)  -->
<svg version="1.1" baseProfile="tiny" id="Layer_1" xmlns="http://www.w3.org/2000/svg" xmlns:xlink="http://www.w3.org/1999/xlink"
	 x="0px" y="0px" viewBox="0 0 195.59 195.59" xml:space="preserve">
<path fill="#ECEDED" d="M189.749,98.801c0,51.026-41.361,92.393-92.393,92.393c-51.026,0-92.392-41.367-92.392-92.393
	c0-51.021,41.366-92.382,92.392-92.382C148.388,6.419,189.749,47.781,189.749,98.801z"/>
<g>
	<g>
		<path fill="#434953" d="M48.114,115.896c0,7.831,5.142,14.177,11.485,14.177c6.343,0,11.47-6.346,11.47-14.177
			c0-7.839-5.126-14.164-11.47-14.164C53.256,101.732,48.114,108.057,48.114,115.896z"/>
		<path fill="#434953" d="M48.225,144.95l2.728-4.657l-5.874-2.951l4.908-4.161l-0.036-0.147c-1.868,0.136-3.731,0.275-5.614,0.493
			c-0.228,0.037-0.438,0.179-0.656,0.289c-0.031,0-0.074-0.016-0.105-0.021c-3.447-0.16-6.501,2.6-6.816,6.338l-1.076,13.569
			c5.63,4.428,12.498,7.369,20.012,8.114l0.032-0.32L48.225,144.95z"/>
		<path fill="#434953" d="M82.807,140.134c-0.315-3.738-3.374-6.498-6.821-6.338c-0.131,0.016-0.247,0.045-0.368,0.066
			c-0.257-0.15-0.504-0.291-0.766-0.333c-1.884-0.218-3.752-0.357-5.619-0.493l-0.031,0.147l4.906,4.161l-5.871,2.951l2.718,4.657
			l-7.487,16.523l0.021,0.344c7.676-0.758,14.686-3.778,20.363-8.385L82.807,140.134z"/>
		<path fill="#434953" d="M62.265,138.15l1.081-0.934l-1.438-5.239h-4.633l-1.422,5.239l1.076,0.921l-1.201,23.359l-0.032,0.32
			c1.28,0.136,2.592,0.21,3.904,0.21c1.306,0,2.608-0.073,3.888-0.21l-0.021-0.344L62.265,138.15z"/>
	</g>
	<path fill="#F68820" d="M141.96,38.528H78.294c-6.711,0-12.152,5.438-12.152,12.146v33.567c0,6.713,5.441,12.157,12.152,12.157
		h10.053l-12.729,18.516l37.03-18.516h29.312c6.716,0,12.157-5.444,12.157-12.157V50.674
		C154.117,43.966,148.676,38.528,141.96,38.528z M91.325,72.96c-2.88,0-5.21-2.329-5.21-5.207c0-2.883,2.33-5.21,5.21-5.21
		c2.873,0,5.208,2.327,5.208,5.21C96.533,70.631,94.198,72.96,91.325,72.96z M110.127,72.96c-2.873,0-5.202-2.329-5.202-5.207
		c0-2.883,2.33-5.21,5.202-5.21c2.878,0,5.207,2.327,5.207,5.21C115.335,70.631,113.005,72.96,110.127,72.96z M128.937,72.96
		c-2.87,0-5.205-2.329-5.205-5.207c0-2.883,2.335-5.21,5.205-5.21c2.881,0,5.21,2.327,5.21,5.21
		C134.148,70.631,131.818,72.96,128.937,72.96z"/>
	<g>
		<path fill="#434953" d="M106.221,128.753c4.25,0,7.7-4.248,7.7-9.502c0-5.257-3.45-9.515-7.7-9.515
			c-4.253,0-7.697,4.258-7.697,9.515C98.524,124.506,101.968,128.753,106.221,128.753z"/>
		<path fill="#434953" d="M106.216,146.144c5.787,0,11.223-1.472,15.969-4.04l-0.517-6.585c-0.215-2.508-2.256-4.376-4.581-4.255
			c-0.076,0-0.16,0.021-0.247,0.026c-0.165-0.076-0.331-0.183-0.506-0.21c-6.894-0.832-13.582-0.832-20.476,0
			c-0.152,0.026-0.291,0.11-0.441,0.189l-0.063-0.005c-2.324-0.121-4.371,1.747-4.586,4.255l-0.509,6.585
			C95.003,144.672,100.439,146.144,106.216,146.144z"/>
	</g>
</g>
</svg>
