<?xml version="1.0" encoding="utf-8"?>
<!-- Generator: Adobe Illustrator 18.1.1, SVG Export Plug-In . SVG Version: 6.00 Build 0)  -->
<svg version="1.1" baseProfile="tiny" id="Layer_1" xmlns="http://www.w3.org/2000/svg" xmlns:xlink="http://www.w3.org/1999/xlink"
	 x="0px" y="0px" viewBox="0 0 195.59 195.59" xml:space="preserve">
<path fill="#ECEDED" d="M193.479,97.293c0,52.811-42.81,95.626-95.626,95.626c-52.81,0-95.623-42.815-95.623-95.626
	c0-52.808,42.813-95.62,95.623-95.62C150.669,1.673,193.479,44.485,193.479,97.293z"/>
<g>
	<rect x="80.836" y="144.342" fill="#434953" width="34.792" height="7.12"/>
	<path fill="#434953" d="M123.952,153.047H72.511c-1.303,0-2.36,1.064-2.36,2.373v0.885h56.161v-0.885
		C126.312,154.112,125.256,153.047,123.952,153.047z"/>
	<path fill="#434953" d="M160.786,46.72h-12.322c-1.002,1.447-2.243,3-3.747,4.733l-2.737,3.147h13.922v66.844H40.546V54.6h70.908
		l11.41-7.88H35.685c-1.822,0-3.283,1.464-3.283,3.278v89.058c0,1.803,1.461,3.264,3.283,3.264h125.101
		c1.808,0,3.277-1.461,3.277-3.264V49.998C164.063,48.184,162.594,46.72,160.786,46.72z"/>
	<g>
		<path fill="#F6881F" d="M68.619,96.473c-4.999,7.652-0.874,15.382-9.455,16.056c0,0,1.263,0.429,3.247,0.82
			c3.554,0.494,5.822-0.977,6.688-5.493c0,0,0.581,2.93-1.58,6.063c3.378,0.445,9.24-1.059,12.434-3.389
			c7.122-5.205,8.616-10.908,8.616-10.908l-8.159-9.126C80.409,90.497,71.761,91.664,68.619,96.473z"/>
		<path fill="#F6881F" d="M136.915,43.771c-9.783,6.759-25.796,17.818-35.573,24.571c-9.786,6.753-16.17,14.095-14.19,16.311
			c1.982,2.216,5.227,5.838,7.209,8.057c1.979,2.213,9.984-3.313,17.785-12.281c7.804-8.974,20.572-23.653,28.373-32.625
			C148.317,38.832,146.696,37.018,136.915,43.771z"/>
		<path fill="#F6881F" d="M85.582,85.112c-0.605-0.673-1.776-0.614-2.609,0.136c-0.589,0.524-0.836,1.246-0.736,1.865
			c-0.125,0.071-0.252,0.13-0.366,0.234c-0.747,0.665-0.915,1.694-0.378,2.3l7.274,8.132c0.541,0.603,1.583,0.549,2.33-0.119
			c0.114-0.101,0.187-0.223,0.274-0.337c0.603,0.168,1.347,0.005,1.933-0.521c0.836-0.752,1.029-1.906,0.423-2.58L85.582,85.112z"/>
	</g>
</g>
</svg>
