<svg xmlns="http://www.w3.org/2000/svg" width="439" height="383.136" viewBox="0 0 439 383.136">
  <g id="drb_usl_any" transform="translate(0 -0.098)">
    <path id="Path_171" data-name="Path 171" d="M249.008,312.543H46.977A47.027,47.027,0,0,1,0,265.57V47.074A47.031,47.031,0,0,1,46.977.1H306.84a47.031,47.031,0,0,1,46.977,46.977V203.105a7,7,0,1,1-13.992,0V47.074A33.022,33.022,0,0,0,306.84,14.09H46.977A33.022,33.022,0,0,0,13.993,47.074v218.5a33.021,33.021,0,0,0,32.984,32.98H249.008a7,7,0,0,1,0,13.992Zm0,0"/>
    <path id="Path_172" data-name="Path 172" d="M346.82,95.395H7A7,7,0,0,1,7,81.4H346.82a7,7,0,0,1,0,13.992Zm0,0"/>
    <path id="Path_173" data-name="Path 173" d="M100.324,67.629a19.555,19.555,0,1,1,19.555-19.555A19.578,19.578,0,0,1,100.324,67.629Zm0-25.117a5.563,5.563,0,1,0,5.563,5.563,5.566,5.566,0,0,0-5.563-5.562Zm0,0"/>
    <path id="Path_174" data-name="Path 174" d="M43.914,67.453A19.555,19.555,0,1,1,63.469,47.9,19.576,19.576,0,0,1,43.914,67.453Zm0-25.117A5.563,5.563,0,1,0,49.477,47.9,5.57,5.57,0,0,0,43.914,42.336Zm0,0"/>
    <path id="Path_175" data-name="Path 175" d="M156.738,67.8A19.555,19.555,0,1,1,176.293,48.25,19.576,19.576,0,0,1,156.738,67.8Zm0-25.117A5.563,5.563,0,1,0,162.3,48.25,5.57,5.57,0,0,0,156.738,42.688Zm0,0"/>
    <g id="Group_115" data-name="Group 115">
      <path id="Path_165" data-name="Path 165" d="M280.332,372.172a42.361,42.361,0,0,1-20.512-5.348,7,7,0,0,1-1.574-11.078l16.434-16.43-.23-5.105-4.969-.148L253,350.344a7,7,0,0,1-10.844-1.258c-11.246-17.941-8.773-38.543,6.453-53.766,11.082-11.082,28.148-15.531,43.672-11.707l43.734-43.734c-6.523-16.352-2.645-34.141,10.684-47.465,14.684-14.422,35.207-17.617,52.328-8.187a7,7,0,0,1,1.574,11.074l-16.43,16.43.227,5.105,4.969.152L405.848,200.7a7,7,0,0,1,10.918,1.379c10.957,18.262,8.363,38.3-6.941,53.625-12.477,12.707-30.016,15.023-43.48,11.731l-43.512,43.516c6.523,16.352,2.645,34.137-10.68,47.461-9.055,9.055-20.4,13.758-31.82,13.758Zm-4.387-14.328c9.207,1.5,18.719-1.727,26.313-9.32,10.109-10.109,12.41-23.812,6.008-35.754a7,7,0,0,1,1.215-8.254L359.4,254.594a7,7,0,0,1,7.328-1.629c9.309,3.371,23.645,2.594,33.129-7.078l.051-.051c8.258-8.258,11.176-18.129,8.535-28.023l-11.371,11.238a7.005,7.005,0,0,1-5.129,2.016l-14.453-.437a7,7,0,0,1-6.777-6.68l-.656-14.672a7,7,0,0,1,2.043-5.262L382.918,193.2c-9.211-1.52-18.727,1.648-26.363,9.148-10.066,10.066-12.367,23.766-5.961,35.711a7,7,0,0,1-1.223,8.254l-50.137,50.137a7,7,0,0,1-7.293,1.645c-11.426-4.062-25.176-1.141-33.43,7.117-8.352,8.348-11.172,18.285-8.27,28.188L261.781,322a7.063,7.063,0,0,1,5.133-2.016l14.449.438a6.994,6.994,0,0,1,6.777,6.68l.656,14.672a6.977,6.977,0,0,1-2.043,5.258Zm0,0" fill="#fa8807"/>
      <path id="Path_166" data-name="Path 166" d="M402.664,383.234a6.977,6.977,0,0,1-4.945-2.047L346.7,330.172a7,7,0,0,1,9.895-9.895l46.086,46.086L422.09,347.1l-46.27-46.266a7,7,0,0,1,9.895-9.895l51.234,51.23a7,7,0,0,1-.016,9.914l-29.34,29.121a6.984,6.984,0,0,1-4.93,2.027Zm0,0" fill="#fa8807"/>
      <path id="Path_167" data-name="Path 167" d="M336.98,346.016a7,7,0,0,1-4.937-11.953l56.926-56.707a7,7,0,0,1,9.875,9.914l-56.926,56.7A6.962,6.962,0,0,1,336.98,346.016Zm0,0" fill="#fa8807"/>
      <path id="Path_168" data-name="Path 168" d="M321,271.793a6.972,6.972,0,0,1-4.945-2.051l-37.809-37.809-.07-.07-1.75-1.75a7,7,0,0,1,9.895-9.895l39.629,39.633A7,7,0,0,1,321,271.793Zm0,0" fill="#fa8807"/>
      <path id="Path_169" data-name="Path 169" d="M366.32,316.895a6.975,6.975,0,0,1-4.926-2.027l-26.273-26.055a7,7,0,1,1,9.852-9.934l26.273,26.055a6.994,6.994,0,0,1-4.926,11.961Zm0,0" fill="#fa8807"/>
      <path id="Path_170" data-name="Path 170" d="M273.785,239.688a6.974,6.974,0,0,1-4.949-2.051l-26.316-26.316a6.993,6.993,0,0,1,0-9.895l14.551-14.555a7,7,0,0,1,9.895,0l26.32,26.32a7,7,0,0,1,0,9.895L278.73,237.637a6.972,6.972,0,0,1-4.945,2.051Zm-16.426-33.316L273.785,222.8l4.656-4.656-16.426-16.426Zm0,0" fill="#fa8807"/>
    </g>
  </g>
</svg>
