<svg xmlns="http://www.w3.org/2000/svg" width="66" height="71.171" viewBox="0 0 66 71.171">
  <g id="editor" transform="translate(-38.312 -21.256)">
    <path id="Path_143" data-name="Path 143" d="M98.969,33h-15.7a12.857,12.857,0,0,0-1.637-2.911,13,13,0,0,0-3.724-3.353h8.177a4.391,4.391,0,1,0,0-1.819H75.836V22.166a.91.91,0,0,0-.91-.91H67.6a.91.91,0,0,0-.91.91V24.92H56.351a4.488,4.488,0,1,0,0,1.819H64.7A12.815,12.815,0,0,0,59.354,33h-15.7a5.349,5.349,0,0,0-5.343,5.343v36.03a5.349,5.349,0,0,0,5.343,5.343H61.921V90.608H57.685a.91.91,0,0,0,0,1.819H85.736a.91.91,0,0,0,0-1.819H80.7V79.719H98.969a5.349,5.349,0,0,0,5.343-5.343V38.346A5.349,5.349,0,0,0,98.969,33Zm-8.5-9.744a2.572,2.572,0,1,1-2.668,2.57A2.623,2.623,0,0,1,90.473,23.259Zm-16.456-.184v2.982c0,.013-.01.026-.015.039a.9.9,0,0,0,.015.58v1.906H68.509V26.691a.906.906,0,0,0,.005-.569l-.005-.014V23.075ZM52.053,28.5a2.67,2.67,0,1,1,2.57-2.668A2.624,2.624,0,0,1,52.053,28.5Zm-8.4,6.324H58.779a12.986,12.986,0,0,0-.345,2.975.91.91,0,1,0,1.819,0,11.115,11.115,0,0,1,.573-3.53.874.874,0,0,0,.035-.1,11.007,11.007,0,0,1,5.829-6.421v1.747a.91.91,0,0,0,.91.91h7.327a.91.91,0,0,0,.91-.91V27.7a10.981,10.981,0,0,1,5.919,6.438.918.918,0,0,0,.053.15A11.146,11.146,0,0,1,82.37,37.8a.91.91,0,1,0,1.819,0,12.954,12.954,0,0,0-.345-2.975H98.969a3.528,3.528,0,0,1,3.524,3.524V69.418H40.131V38.346a3.528,3.528,0,0,1,3.524-3.524ZM78.883,90.608H63.739V79.719H78.883ZM98.968,77.9H43.655a3.528,3.528,0,0,1-3.524-3.524V71.238h62.362v3.138A3.528,3.528,0,0,1,98.969,77.9Z" transform="translate(0)" fill="#333"/>
    <path id="Path_144" data-name="Path 144" d="M190.392,133.128a12.957,12.957,0,0,0,1.663,1.582l-1.827,2.73a.91.91,0,0,0-.067.892l4.255,9.07a.9.9,0,0,0-.388.756l.059,4.811a.91.91,0,0,0,.91.9H195l10.419-.065a.91.91,0,0,0,.9-.921l-.059-4.811a.908.908,0,0,0-.419-.754l4.135-9.108a.909.909,0,0,0-.079-.892L208.1,134.7a12.92,12.92,0,0,0,1.01-.892.91.91,0,1,0-1.277-1.3c-.244.241-.5.47-.767.687l-6.338-9.2a.91.91,0,0,0-1.5.01l-6.148,9.184a11.135,11.135,0,0,1-1.312-1.265.91.91,0,0,0-1.366,1.2Zm5.5,18.914-.036-2.951a.907.907,0,0,0,.215-.042L204.2,149a.9.9,0,0,0,.253.042l.036,2.948Zm8.015-4.861-7.566.048-4.318-9.2,7.058-10.544.055,8.8a3.674,3.674,0,0,0,.932,7.229h.023a3.674,3.674,0,0,0,.864-7.24l-.055-8.81,5.2,7.543,2.01,2.916Zm-3.85-9.2h.012a1.855,1.855,0,1,1,.012,3.711h-.012a1.855,1.855,0,1,1-.012-3.711Z" transform="translate(-128.756 -86.833)" fill="#fa8807"/>
    <path id="Path_145" data-name="Path 145" d="M174.118,146.018a.91.91,0,1,0,1.619-.829,11,11,0,0,1-.934-2.574.909.909,0,1,0-1.774.4,12.813,12.813,0,0,0,1.089,3Z" transform="translate(-114.276 -102.361)" fill="#fa8807"/>
    <path id="Path_146" data-name="Path 146" d="M317.977,151.81a.909.909,0,0,0,1.249-.305,12.829,12.829,0,0,0,1.3-2.913.91.91,0,0,0-1.74-.531,11,11,0,0,1-1.119,2.5A.91.91,0,0,0,317.977,151.81Z" transform="translate(-236.899 -107.035)" fill="#fa8807"/>
  </g>
</svg>
