<?xml version="1.0" encoding="utf-8"?>
<!-- Generator: Adobe Illustrator 18.1.1, SVG Export Plug-In . SVG Version: 6.00 Build 0)  -->
<svg version="1.1" baseProfile="tiny" id="Layer_1" xmlns="http://www.w3.org/2000/svg" xmlns:xlink="http://www.w3.org/1999/xlink"
	 x="0px" y="0px" viewBox="0 0 195.59 195.59" xml:space="preserve">
<path fill="#ECEDED" d="M191.783,98.801c0,52.132-42.258,94.396-94.393,94.396c-52.13,0-94.391-42.264-94.391-94.396
	c0-52.127,42.261-94.385,94.391-94.385C149.525,4.416,191.783,46.674,191.783,98.801z"/>
<g>
	<path fill="#F68820" d="M133.403,95.467c-0.091-0.461-0.536-0.769-1-0.675l-2.745,0.504c-0.058,0.011-0.083,0.067-0.136,0.089
		c-0.57-0.936-1.319-1.753-2.227-2.41l0.909-2.581c0.159-0.448-0.077-0.935-0.527-1.093l-3.442-1.214
		c-0.442-0.156-0.933,0.08-1.091,0.525l-0.926,2.635c-0.017,0.048,0.016,0.094,0.008,0.145c-1.123,0.027-2.214,0.273-3.219,0.726
		l-1.768-2.058c-0.305-0.364-0.847-0.407-1.209-0.099l-2.767,2.369c-0.358,0.316-0.403,0.858-0.095,1.211l1.812,2.125
		c0.036,0.04,0.094,0.035,0.135,0.067c-0.21,0.389-0.415,0.777-0.567,1.206c-0.226,0.641-0.344,1.292-0.411,1.938l-2.671,0.496
		c-0.461,0.088-0.775,0.541-0.683,1.002l0.67,3.586c0.086,0.466,0.534,0.775,0.999,0.683l2.743-0.507
		c0.058-0.011,0.083-0.067,0.135-0.088c0.568,0.935,1.317,1.75,2.228,2.407l-0.913,2.579c-0.153,0.448,0.08,0.935,0.528,1.093
		l3.444,1.214c0.448,0.158,0.935-0.075,1.092-0.523l0.929-2.635c0.018-0.048-0.015-0.094-0.007-0.142
		c1.12-0.027,2.21-0.273,3.214-0.724l1.765,2.061c0.305,0.359,0.849,0.399,1.207,0.088l2.773-2.369
		c0.356-0.308,0.403-0.852,0.094-1.204l-1.814-2.131c-0.035-0.04-0.091-0.035-0.13-0.067c0.209-0.383,0.413-0.772,0.564-1.198
		c0.226-0.643,0.344-1.294,0.411-1.943l2.668-0.496c0.469-0.089,0.777-0.536,0.69-1.003L133.403,95.467z M126.19,101.045
		c-0.732,2.08-3.013,3.168-5.087,2.436c-2.08-0.734-3.171-3.01-2.439-5.09c0.734-2.077,3.013-3.168,5.093-2.434
		C125.831,96.689,126.922,98.967,126.19,101.045z"/>
	<path fill="#434953" d="M152.291,74.549c-0.852-1.128-2.184-1.793-3.6-1.793h-40.97c0.899,2.924,1.016,6.034,0.357,9.017h34.637
		l-9.002,31.51c-0.028,0.099-0.052,0.198-0.074,0.3H71.483l-9.956-31.81h12.154c-0.658-2.975-0.524-6.084,0.378-9.017H57.809
		l-3.773-11.319c-0.47-1.412-1.607-2.501-3.038-2.908L35.22,54.024c-2.396-0.683-4.89,0.702-5.574,3.096
		c-0.683,2.393,0.703,4.889,3.097,5.572l13.493,3.854l17.2,51.597l-3.633,11.721c-4.967,1.367-8.635,5.872-8.635,11.271
		c0,6.484,5.256,11.742,11.741,11.742c4.889,0,9.073-2.991,10.839-7.237h36.554c1.766,4.246,5.949,7.237,10.838,7.237
		c6.486,0,11.74-5.259,11.74-11.742c0-6.481-5.254-11.74-11.74-11.74c-4.886,0-9.068,2.986-10.836,7.229H73.745
		c-0.977-2.345-2.713-4.267-4.878-5.554l2.626-8.47h62.798c4.377,0,7.856-3.163,8.233-7.331l10.504-36.766
		C153.414,77.144,153.142,75.678,152.291,74.549z"/>
	<path fill="#F68820" d="M97.419,71.02c3.832,3.608,4.011,9.633,0.399,13.469c-3.608,3.825-9.633,4.013-13.465,0.397
		c-3.826-3.6-4.014-9.636-0.403-13.461C87.562,67.592,93.594,67.412,97.419,71.02z"/>
	<path fill="#434953" d="M112.72,61.231l-1.078-1.008l-2.721-2.57l-1.076-1.011l-3.919,3.056c-0.941-0.67-1.917-1.276-2.92-1.79
		l0.422-5.353l-1.433-0.34l-3.641-0.855l-1.429-0.343l-1.85,4.551c-1.16-0.126-2.324-0.163-3.487-0.11l-2.267-4.771l-1.411,0.424
		l-3.582,1.078l-1.412,0.431l0.659,4.712c-1.095,0.48-2.142,1.064-3.151,1.729l-4.259-2.93l-1.012,1.075l-2.562,2.715l-1.013,1.072
		l2.916,3.745c-0.708,0.994-1.34,2.018-1.864,3.082l-5.137-0.407l-0.342,1.442l-0.858,3.634l-0.331,1.431l4.48,1.82
		c-0.106,1.169-0.114,2.337-0.041,3.506l-4.779,2.273l0.421,1.418l1.083,3.578l0.424,1.41l4.884-0.67
		c0.472,1.024,1.037,2.018,1.678,2.98l-3.05,4.439l1.083,1.016l2.71,2.557l1.08,1.013l3.916-3.056
		c0.938,0.675,1.914,1.276,2.921,1.796l-0.43,5.345l1.443,0.343l3.629,0.863l1.437,0.338l1.841-4.546
		c1.165,0.126,2.325,0.164,3.495,0.11l2.27,4.769l1.417-0.426l3.574-1.075l1.415-0.431l-0.657-4.707
		c1.091-0.48,2.128-1.069,3.149-1.729l4.256,2.935l1.016-1.083l2.565-2.715l1.009-1.072l-2.92-3.747
		c0.702-0.992,1.336-2.013,1.866-3.082l5.138,0.413l0.332-1.448l0.859-3.634l0.339-1.439l-4.476-1.812
		c0.102-1.16,0.102-2.337,0.032-3.503l4.782-2.281l-0.424-1.412l-1.075-3.573l-0.434-1.418l-4.881,0.678
		c-0.469-1.032-1.039-2.026-1.676-2.991L112.72,61.231z M102.456,88.855c-5.926,6.288-15.926,6.513-22.308,0.509
		c-6.387-6.017-6.757-16.02-0.831-22.308c5.93-6.294,15.937-6.519,22.323-0.509C108.017,72.561,108.382,82.561,102.456,88.855z"/>
</g>
</svg>
