<?xml version="1.0" encoding="utf-8"?>
<!-- Generator: Adobe Illustrator 18.1.1, SVG Export Plug-In . SVG Version: 6.00 Build 0)  -->
<svg version="1.1" id="Layer_1" xmlns="http://www.w3.org/2000/svg" xmlns:xlink="http://www.w3.org/1999/xlink" x="0px" y="0px"
	 viewBox="0 0 850.39 850.39" enable-background="new 0 0 850.39 850.39" xml:space="preserve">
<path fill="#333333" d="M601.596,31.755H248.945c-119.889,0.147-217.042,97.3-217.189,217.189v352.681
	c0.147,119.889,97.3,217.042,217.189,217.189h352.651c119.901-0.131,217.072-97.288,217.219-217.189V248.945
	C818.668,129.044,721.497,31.886,601.596,31.755z M748.966,601.625c-0.098,81.35-66.02,147.272-147.37,147.37H248.945
	c-81.356-0.082-147.288-66.014-147.37-147.37V248.945c0.098-81.35,66.02-147.272,147.37-147.37h352.651
	c81.35,0.098,147.272,66.02,147.37,147.37V601.625z"/>
<path fill="#333333" d="M425.285,221.129c-112.752,0-204.156,91.404-204.156,204.156s91.404,204.156,204.156,204.156
	s204.156-91.404,204.156-204.156v0C629.31,312.587,537.983,221.26,425.285,221.129z M425.285,559.147
	c-73.93,0-133.862-59.932-133.862-133.862c0-73.93,59.932-133.862,133.862-133.862c73.93,0,133.862,59.932,133.862,133.862
	C559.066,499.181,499.181,559.066,425.285,559.147z"/>
<path fill="#333333" d="M629.441,158.834c-34.65,0.044-62.704,28.169-62.66,62.819s28.169,62.704,62.819,62.66
	s62.704-28.169,62.66-62.819c-0.021-16.617-6.634-32.547-18.386-44.294C662.071,165.448,646.096,158.845,629.441,158.834z"/>
</svg>
