<?xml version="1.0" encoding="utf-8"?>
<!-- Generator: Adobe Illustrator 24.0.1, SVG Export Plug-In . SVG Version: 6.00 Build 0)  -->
<svg version="1.1" id="Layer_1" xmlns="http://www.w3.org/2000/svg" xmlns:xlink="http://www.w3.org/1999/xlink" x="0px" y="0px"
	 viewBox="0 0 449 449" style="enable-background:new 0 0 449 449;" xml:space="preserve">
<style type="text/css">
	.st0{fill:#FA8807;}
	.st1{fill:#424953;}
</style>
<path class="st0" d="M346.9,370c-31.4,0-57-25.6-57-57c0-31.4,25.6-57,57-57c0.4,0,0.8,0,1.2,0c15.1,0.2,29.2,6.2,39.8,17
	c10.5,10.8,16.3,25,16.1,40.1C403.9,344.4,378.4,370,346.9,370z M346.9,270c-23.7,0-43,19.3-43,43c0,23.7,19.3,43,43,43
	c23.7,0,43-19.3,43-43c0.3-23.5-18.6-42.8-42-43C347.6,270,347.3,270,346.9,270L346.9,270z"/>
<path class="st0" d="M346.9,342.5c-16.3,0-29.5-13.2-29.5-29.5c0-16.3,13.2-29.5,29.5-29.5c0.2,0,0.4,0,0.6,0
	c16.1,0.2,29.1,13.4,29,29.6C376.4,329.3,363.2,342.5,346.9,342.5z M346.9,297.5c-8.6,0-15.5,7-15.5,15.5c0,8.6,7,15.5,15.5,15.5
	c8.6,0,15.5-7,15.5-15.5c0.1-8.5-6.7-15.4-15.1-15.5H346.9z"/>
<path class="st1" d="M257.6,344.5H47c-25.9,0-47-21.1-47-47V79.1c0-25.9,21.1-47,47-47h259.8c25.9,0,47,21.1,47,47v137
	c0,3.9-3.1,7-7,7c-3.9,0-7-3.1-7-7v-137c0-18.2-14.8-33-33-33H47c-18.2,0-33,14.8-33,33v218.4c0,18.2,14.8,33,33,33h210.7
	c3.9,0,7,3.1,7,7C264.6,341.4,261.5,344.5,257.6,344.5z"/>
<path class="st1" d="M346.7,127.4H7c-3.9,0-7-3.1-7-7c0-3.9,3.1-7,7-7h339.7c3.9,0,7,3.1,7,7C353.7,124.3,350.6,127.4,346.7,127.4z"
	/>
<path class="st1" d="M100.3,99.7c-10.8,0-19.5-8.8-19.5-19.5c0-10.8,8.8-19.5,19.5-19.5c10.8,0,19.5,8.8,19.5,19.5
	C119.8,90.9,111.1,99.7,100.3,99.7z M100.3,74.6c-3.1,0-5.6,2.5-5.6,5.6s2.5,5.6,5.6,5.6s5.6-2.5,5.6-5.6S103.4,74.6,100.3,74.6z"/>
<path class="st1" d="M43.9,99.5c-10.8,0-19.5-8.8-19.5-19.5c0-10.8,8.8-19.5,19.5-19.5c10.8,0,19.5,8.8,19.5,19.5
	C63.4,90.7,54.7,99.5,43.9,99.5z M43.9,74.4c-3.1,0-5.6,2.5-5.6,5.6s2.5,5.6,5.6,5.6s5.6-2.5,5.6-5.6S47,74.4,43.9,74.4z"/>
<path class="st1" d="M156.7,99.9c-10.8,0-19.5-8.8-19.5-19.5c0-10.8,8.8-19.5,19.5-19.5c10.8,0,19.5,8.8,19.5,19.5
	C176.2,91.1,167.5,99.9,156.7,99.9z M156.7,74.8c-3.1,0-5.6,2.5-5.6,5.6s2.5,5.6,5.6,5.6c3.1,0,5.6-2.5,5.6-5.6
	S159.7,74.8,156.7,74.8z"/>
<path class="st0" d="M366.6,416.8h-41.2l-0.3,0c-4.4-0.4-7.9-3.8-8.6-8.1l-0.1-0.5l-2.1-23.3c-5-2.3-9.8-5.1-14.2-8.2l-21,9.7
	c-2.1,1.3-4.6,1.6-7,0.8l-0.6-0.2c-2-0.9-3.7-2.4-4.8-4.3l-20.5-35.2c-2.3-4.2-1.2-9.4,2.6-12.3l0.3-0.2l19.9-13.6
	c-0.7-5.5-0.7-11.1,0-16.6l-19-13.5c-4-2.9-5.2-8.3-2.9-12.6l0.1-0.1l20.8-35.7l0.3-0.4c2.7-3.3,7.1-4.5,11.1-2.9l0.3,0.1l21.2,9.8
	c4.5-3.2,9.2-6,14.3-8.3l2.2-24.3c0.9-4.4,4.8-7.6,9.3-7.5h41.1l0.3,0c4.4,0.4,7.9,3.8,8.6,8.1l0.1,0.5L379,241
	c5,2.3,9.8,5.1,14.2,8.2l21.1-9.7c4.4-2.5,9.5-1,12.2,3.6l21,35.4c2.3,4.2,1.1,9.6-2.7,12.4l-0.1,0.1l-19,13.5
	c0.8,5.6,0.7,11.2,0,16.8l17.7,13.5c3.9,2.9,5.1,8.2,2.7,12.5l-0.1,0.1l-20.8,35.7l-0.3,0.4c-2.7,3.3-7.1,4.4-11,2.9l-0.4-0.2
	l-21.2-9.8c-4.5,3.2-9.2,6-14.3,8.3l-2.1,23.4C375.7,413,371.5,416.8,366.6,416.8z M330,402.8h32.4l2.5-27.4l5.3-2.3
	c5.6-2.3,10.9-5.3,15.7-9.1l4.5-3.7l25.3,11.7l16.4-28.2l-21.4-16.3l0.8-5.7c1.1-5.9,1.1-11.8,0-17.7l0-0.3l-0.8-5.7l22.8-16.2
	l-16.7-28.1l-25.1,11.5l-4.5-3.4c-5-3.8-10.4-6.9-16.1-9.3l-5.2-2.2l-2.5-27.4h-32.4l-2.5,27.4l-5.3,2.3c-5.6,2.3-10.9,5.3-15.7,9.1
	l-4.5,3.7l-25.3-11.6L261.3,282l22.8,16.2l-0.9,6c-1.1,5.8-1.1,11.8,0,17.6l0,0.3l0.8,5.7l-4.8,3.5L260.4,344l16.3,28l25.1-11.5
	l4.5,3.4c5,3.8,10.4,6.9,16.1,9.3l5.2,2.2L330,402.8z"/>
</svg>
