<?xml version="1.0" encoding="utf-8"?>
<!-- Generator: Adobe Illustrator 18.1.1, SVG Export Plug-In . SVG Version: 6.00 Build 0)  -->
<svg version="1.1" baseProfile="tiny" id="Layer_1" xmlns="http://www.w3.org/2000/svg" xmlns:xlink="http://www.w3.org/1999/xlink"
	 x="0px" y="0px" viewBox="0 0 195.59 195.59" xml:space="preserve">
<path fill="#ECEDED" d="M190.449,98.293c0,51.393-41.661,93.059-93.059,93.059c-51.393,0-93.056-41.666-93.056-93.059
	c0-51.39,41.664-93.054,93.056-93.054C148.788,5.24,190.449,46.903,190.449,98.293z"/>
<g>
	<path fill="#F68820" d="M92.944,124.247h-5.58c-0.392-1.953-0.933-3.857-1.613-5.696l4.66-2.684
		c1.116-0.648,1.494-2.081,0.85-3.195l-4.664-8.075c-0.643-1.119-2.076-1.509-3.191-0.86l-4.844,2.796
		c-1.296-1.486-2.709-2.867-4.227-4.129l2.693-4.665c0.643-1.124,0.258-2.545-0.861-3.195l-8.074-4.667
		c-1.126-0.643-2.547-0.263-3.191,0.856l-2.787,4.84c-1.854-0.636-3.773-1.125-5.749-1.456v-5.389c0-1.292-1.044-2.341-2.331-2.341
		h-8.391v16.978c1.389-0.206,2.797-0.347,4.242-0.347c15.885,0,28.761,12.882,28.761,28.762c0,6.125-1.932,11.788-5.198,16.452
		h18.57c-0.151-0.588-0.522-1.12-1.09-1.453l-4.83-2.791c0.629-1.844,1.115-3.764,1.452-5.733h5.392
		c1.282,0,2.323-1.045,2.323-2.337v-9.321C95.272,125.294,94.226,124.247,92.944,124.247z"/>
	<path fill="#434953" d="M151.063,51.793H42.784c-2.028,0-3.668,1.642-3.668,3.67v95.431c0,2.031,1.639,3.67,3.668,3.67h108.28
		c2.025,0,3.67-1.639,3.67-3.67V55.463C154.734,53.435,153.089,51.793,151.063,51.793z M128.127,59.743
		c2.7,0,4.891,2.188,4.891,4.894c0,2.706-2.191,4.895-4.891,4.895c-2.706,0-4.899-2.189-4.899-4.895
		C123.228,61.93,125.421,59.743,128.127,59.743z M113.751,59.743c2.703,0,4.897,2.188,4.897,4.894c0,2.706-2.193,4.895-4.897,4.895
		c-2.706,0-4.892-2.189-4.892-4.895C108.858,61.93,111.045,59.743,113.751,59.743z M147.39,147.223H46.453V77.492H147.39V147.223z
		 M142.503,69.531c-2.709,0-4.899-2.189-4.899-4.895c0-2.706,2.191-4.894,4.899-4.894c2.7,0,4.887,2.188,4.887,4.894
		C147.39,67.342,145.204,69.531,142.503,69.531z"/>
	<g>
		<g>
			<path fill="#434953" d="M123.283,90.059c0,0.962-0.777,1.739-1.739,1.739h-7.395c-0.953,0-1.73-0.777-1.73-1.739v-5.656
				c0-0.957,0.777-1.736,1.73-1.736h7.395c0.962,0,1.739,0.78,1.739,1.736V90.059z"/>
			<path fill="#434953" d="M107.019,93.961c0.827,0.484,1.109,1.545,0.628,2.38l-3.688,6.396c-0.484,0.831-1.547,1.109-2.382,0.637
				l-4.887-2.83c-0.835-0.478-1.116-1.539-0.635-2.377l3.691-6.393c0.477-0.833,1.543-1.118,2.374-0.637L107.019,93.961z"/>
			<path fill="#434953" d="M102.262,110.001c0.832-0.482,1.891-0.198,2.374,0.633l3.698,6.404c0.473,0.827,0.189,1.891-0.641,2.371
				l-4.9,2.825c-0.823,0.484-1.896,0.194-2.368-0.637l-3.697-6.399c-0.484-0.827-0.194-1.893,0.63-2.372L102.262,110.001z"/>
			<path fill="#434953" d="M113.77,122.14c0-0.962,0.778-1.737,1.744-1.737h7.386c0.966,0,1.739,0.776,1.739,1.727v5.662
				c0,0.961-0.773,1.733-1.739,1.733h-7.395c-0.952,0-1.735-0.773-1.735-1.733V122.14z"/>
			<path fill="#434953" d="M130.045,118.238c-0.832-0.489-1.124-1.54-0.638-2.377l3.693-6.396c0.476-0.835,1.542-1.119,2.374-0.65
				l4.895,2.845c0.83,0.464,1.111,1.535,0.633,2.368l-3.697,6.395c-0.473,0.83-1.54,1.125-2.368,0.641L130.045,118.238z"/>
			<path fill="#434953" d="M134.796,102.192c-0.832,0.484-1.893,0.21-2.374-0.637l-3.693-6.399c-0.486-0.827-0.203-1.891,0.63-2.377
				l4.902-2.815c0.822-0.488,1.888-0.199,2.369,0.627l3.694,6.399c0.484,0.837,0.199,1.901-0.633,2.387L134.796,102.192z"/>
		</g>
		<path fill="#434953" d="M118.529,89.182c-9.344,0-16.917,7.575-16.917,16.922c0,9.338,7.573,16.908,16.917,16.908
			c9.341,0,16.914-7.569,16.914-16.908C135.444,96.757,127.871,89.182,118.529,89.182z M118.529,114.177
			c-4.464,0-8.082-3.612-8.082-8.073c0-4.467,3.617-8.082,8.082-8.082c4.459,0,8.078,3.615,8.078,8.082
			C126.607,110.565,122.989,114.177,118.529,114.177z"/>
	</g>
</g>
</svg>
