<svg id="optim_usl_any" xmlns="http://www.w3.org/2000/svg" width="424" height="374.086" viewBox="0 0 424 374.086">
  <path id="Path_176" data-name="Path 176" d="M230.32,294.137H193.679a7,7,0,0,1-7-7V208.864a7,7,0,0,1,7-7H230.32a7,7,0,0,1,7,7v78.273A7,7,0,0,1,230.32,294.137Zm-29.641-14H223.32V215.864H200.679Zm0,0" fill="#fa8807"/>
  <path id="Path_177" data-name="Path 177" d="M292,294.137H255.355a7,7,0,0,1-7-7V166.949a7,7,0,0,1,7-7H292a7,7,0,0,1,7,7V287.137A7,7,0,0,1,292,294.137Zm-29.645-14H285V173.949H262.355Zm0,0" fill="#fa8807"/>
  <path id="Path_178" data-name="Path 178" d="M168.645,294.137H132a7,7,0,0,1-7-7V237.6a7,7,0,0,1,7-7h36.645a7,7,0,0,1,7,7v49.535A7,7,0,0,1,168.645,294.137Zm-29.645-14h22.645V244.6H139Zm0,0" fill="#fa8807"/>
  <path id="Path_179" data-name="Path 179" d="M377,374.086H47a47.053,47.053,0,0,1-47-47V47A47.056,47.056,0,0,1,47,0H377a47.056,47.056,0,0,1,47,47V327.086A47.053,47.053,0,0,1,377,374.086ZM47,14A33.039,33.039,0,0,0,14,47V327.086a33.039,33.039,0,0,0,33,33H377a33.039,33.039,0,0,0,33-33V47a33.039,33.039,0,0,0-33-33Zm0,0"/>
  <path id="Path_180" data-name="Path 180" d="M417,112.09H7a7,7,0,0,1,0-14H417a7,7,0,1,1,0,14Zm0,0"/>
  <path id="Path_181" data-name="Path 181" d="M119.6,78.594a22.152,22.152,0,1,1,22.152-22.152A22.182,22.182,0,0,1,119.6,78.594Zm0-30.3a8.152,8.152,0,1,0,8.152,8.152,8.163,8.163,0,0,0-8.152-8.152Zm0,0"/>
  <path id="Path_182" data-name="Path 182" d="M51.539,78.379A22.152,22.152,0,1,1,73.691,56.227,22.177,22.177,0,0,1,51.539,78.379Zm0-30.3a8.152,8.152,0,1,0,8.152,8.152A8.165,8.165,0,0,0,51.539,48.074Zm0,0"/>
  <path id="Path_183" data-name="Path 183" d="M187.664,78.8a22.15,22.15,0,1,1,22.152-22.152A22.177,22.177,0,0,1,187.664,78.8Zm0-30.3a8.152,8.152,0,1,0,8.152,8.152A8.16,8.16,0,0,0,187.664,48.5Zm0,0"/>
</svg>
