<?xml version="1.0" encoding="utf-8"?>
<!-- Generator: Adobe Illustrator 18.1.1, SVG Export Plug-In . SVG Version: 6.00 Build 0)  -->
<svg version="1.1" baseProfile="tiny" id="Layer_1" xmlns="http://www.w3.org/2000/svg" xmlns:xlink="http://www.w3.org/1999/xlink"
	 x="0px" y="0px" viewBox="0 0 195.59 195.59" xml:space="preserve">
<path fill="#ECEDED" d="M192.26,99.051c0,52.127-42.258,94.39-94.392,94.39c-52.129,0-94.39-42.263-94.39-94.39
	s42.261-94.39,94.39-94.39C150.002,4.661,192.26,46.924,192.26,99.051z"/>
<g>
	<path fill="#434953" d="M151.426,47.934H43.923c-2.012,0-3.642,1.632-3.642,3.647v94.745c0,2.015,1.629,3.644,3.642,3.644h107.504
		c2.012,0,3.644-1.629,3.644-3.644V51.581C155.07,49.566,153.439,47.934,151.426,47.934z M128.654,55.828
		c2.681,0,4.856,2.172,4.856,4.859c0,2.686-2.175,4.861-4.856,4.861c-2.686,0-4.864-2.175-4.864-4.861
		C123.79,58.001,125.968,55.828,128.654,55.828z M114.382,55.828c2.684,0,4.861,2.172,4.861,4.859c0,2.686-2.178,4.861-4.861,4.861
		c-2.686,0-4.859-2.175-4.859-4.861C109.524,58.001,111.696,55.828,114.382,55.828z M147.78,142.682H47.567V73.451H147.78V142.682z
		 M142.929,65.549c-2.689,0-4.864-2.175-4.864-4.861c0-2.686,2.175-4.859,4.864-4.859c2.681,0,4.851,2.172,4.851,4.859
		C147.78,63.374,145.61,65.549,142.929,65.549z"/>
</g>
<rect x="58.05" y="84.58" fill="#F68820" width="79.251" height="17.462"/>
<g>
	<rect x="58.05" y="106.743" fill="#F68820" width="22.659" height="3.022"/>
	<rect x="58.05" y="114.467" fill="#F68820" width="22.659" height="3.022"/>
	<rect x="58.05" y="122.19" fill="#F68820" width="22.659" height="3.022"/>
	<rect x="58.05" y="129.914" fill="#F68820" width="22.659" height="3.022"/>
</g>
<g>
	<rect x="86.513" y="106.743" fill="#F68820" width="22.662" height="3.022"/>
	<rect x="86.513" y="114.467" fill="#F68820" width="22.662" height="3.022"/>
	<rect x="86.513" y="122.19" fill="#F68820" width="22.662" height="3.022"/>
	<rect x="86.513" y="129.914" fill="#F68820" width="22.662" height="3.022"/>
</g>
<g>
	<rect x="114.978" y="106.743" fill="#F68820" width="22.659" height="3.022"/>
	<rect x="114.978" y="108.852" fill="#F68820" width="22.659" height="21.639"/>
	<rect x="114.978" y="129.914" fill="#F68820" width="22.659" height="3.022"/>
</g>
</svg>
