<svg xmlns="http://www.w3.org/2000/svg" width="61" height="75.929" viewBox="0 0 61 75.929">
  <g id="phone" transform="translate(-62 -14.5)">
    <path id="Path_147" data-name="Path 147" d="M312.533,361.712l-6.9,6.9L302.063,365a.943.943,0,1,0-1.341,1.328l4.24,4.282a.943.943,0,0,0,.668.28h0a.943.943,0,0,0,.667-.276l7.566-7.566a.943.943,0,1,0-1.334-1.334Z" transform="translate(-200.962 -292.393)" fill="#fa8807"/>
    <path id="Path_148" data-name="Path 148" d="M106.334,57.1a16.614,16.614,0,0,0-4.716.681V21.732A7.24,7.24,0,0,0,94.386,14.5H69.232A7.24,7.24,0,0,0,62,21.732V76.756a7.24,7.24,0,0,0,7.232,7.232H93.18A16.661,16.661,0,1,0,106.334,57.1Zm-37.1-40.718H94.386a5.351,5.351,0,0,1,5.345,5.345v2.2h-2.2a.943.943,0,1,0,0,1.887h2.2V58.47a16.714,16.714,0,0,0-4.669,3.037H92.939a.943.943,0,0,0,0,1.887H93.3a16.6,16.6,0,0,0-3.366,7.389H63.887V25.819H89.512a.943.943,0,0,0,0-1.887H63.887v-2.2A5.351,5.351,0,0,1,69.232,16.387Zm0,65.715a5.351,5.351,0,0,1-5.345-5.345V72.669h25.82c-.024.364-.037.731-.037,1.1A16.564,16.564,0,0,0,91.906,82.1Zm37.1,6.446a14.766,14.766,0,0,1-11.947-6.09V82.1h-.25a14.751,14.751,0,0,1,1.729-18.752.945.945,0,0,0,.6-.568,14.775,14.775,0,1,1,9.872,25.766Z" fill="#333"/>
    <path id="Path_149" data-name="Path 149" d="M251.637,76.387h1.748a.943.943,0,1,0,0-1.887h-1.748a.943.943,0,0,0,0,1.887Z" transform="translate(-159.029 -50.567)"/>
    <path id="Path_150" data-name="Path 150" d="M170.3,393.5a3.3,3.3,0,1,0,3.3,3.3A3.3,3.3,0,0,0,170.3,393.5Zm0,4.716a1.415,1.415,0,1,1,1.415-1.415,1.415,1.415,0,0,1-1.415,1.415Z" transform="translate(-88.493 -319.416)" fill="#333"/>
    <path id="Path_151" data-name="Path 151" d="M95.343,147.387h5.282a.943.943,0,1,0,0-1.887H95.343a.943.943,0,1,0,0,1.887Z" transform="translate(-27.306 -110.405)" fill="#fa8807"/>
    <path id="Path_152" data-name="Path 152" d="M156.543,147.387h3.4a.943.943,0,1,0,0-1.887h-3.4a.943.943,0,0,0,0,1.887Z" transform="translate(-78.885 -110.405)" fill="#fa8807"/>
    <path id="Path_153" data-name="Path 153" d="M212,146.443a.943.943,0,0,0,.943.943H222a.943.943,0,1,0,0-1.887h-9.055A.943.943,0,0,0,212,146.443Z" transform="translate(-126.418 -110.405)" fill="#fa8807"/>
    <path id="Path_154" data-name="Path 154" d="M95.343,203.387H104.4a.943.943,0,1,0,0-1.887H95.343a.943.943,0,0,0,0,1.887Z" transform="translate(-27.306 -157.601)" fill="#333"/>
    <path id="Path_155" data-name="Path 155" d="M185.826,203.387a.943.943,0,1,0,0-1.887h-5.282a.943.943,0,0,0,0,1.887Z" transform="translate(-99.112 -157.601)"/>
    <path id="Path_156" data-name="Path 156" d="M252.339,201.5h-3.4a.943.943,0,1,0,0,1.887h3.4a.943.943,0,0,0,0-1.887Z" transform="translate(-156.758 -157.601)"/>
    <path id="Path_157" data-name="Path 157" d="M97.607,257.5H95.343a.943.943,0,0,0,0,1.887h2.264a.943.943,0,0,0,0-1.887Z" transform="translate(-27.306 -204.797)"/>
    <path id="Path_158" data-name="Path 158" d="M142.626,257.5h-5.282a.943.943,0,1,0,0,1.887h5.282a.943.943,0,0,0,0-1.887Z" transform="translate(-62.703 -204.797)"/>
    <path id="Path_159" data-name="Path 159" d="M215.931,257.5H205.743a.943.943,0,0,0,0,1.887h10.187a.943.943,0,0,0,0-1.887Z" transform="translate(-120.35 -204.797)"/>
    <path id="Path_160" data-name="Path 160" d="M97.607,313.5H95.343a.943.943,0,1,0,0,1.887h2.264a.943.943,0,1,0,0-1.887Z" transform="translate(-27.306 -251.993)" fill="#333"/>
    <path id="Path_161" data-name="Path 161" d="M150.172,313.5H137.343a.943.943,0,1,0,0,1.887h12.829a.943.943,0,1,0,0-1.887Z" transform="translate(-62.703 -251.993)" fill="#fa8807"/>
  </g>
</svg>
