<?xml version="1.0" encoding="utf-8"?>
<!-- Generator: Adobe Illustrator 18.1.1, SVG Export Plug-In . SVG Version: 6.00 Build 0)  -->
<svg version="1.1" baseProfile="tiny" id="Layer_1" xmlns="http://www.w3.org/2000/svg" xmlns:xlink="http://www.w3.org/1999/xlink"
	 x="0px" y="0px" viewBox="0 0 195.59 195.59" xml:space="preserve">
<path fill="#ECEDED" d="M191.753,98.556c0,52.132-42.258,94.396-94.393,94.396c-52.13,0-94.391-42.263-94.391-94.396
	c0-52.127,42.261-94.385,94.391-94.385C149.495,4.171,191.753,46.429,191.753,98.556z"/>
<path fill="#434953" d="M115.958,145.631h-69.04V74.899h102.389v46.989l7.446,4.634V52.554c0-2.056-1.667-3.72-3.72-3.72H43.198
	c-2.058,0-3.72,1.664-3.72,3.72v96.8c0,2.061,1.662,3.723,3.72,3.723h83.924L115.958,145.631z M144.348,56.896
	c2.739,0,4.958,2.219,4.958,4.964s-2.219,4.964-4.958,4.964c-2.75,0-4.969-2.219-4.969-4.964S141.598,56.896,144.348,56.896z
	 M129.768,56.896c2.739,0,4.958,2.219,4.958,4.964s-2.219,4.964-4.958,4.964c-2.745,0-4.97-2.219-4.97-4.964
	S127.023,56.896,129.768,56.896z M115.181,56.896c2.745,0,4.969,2.219,4.969,4.964s-2.225,4.964-4.969,4.964
	c-2.745,0-4.959-2.219-4.959-4.964S112.436,56.896,115.181,56.896z"/>
<path fill="#F68820" d="M165.287,142.498c-0.105-1.836-1.584-3.945-2.828-4.709c-14.19-8.834-28.377-17.677-42.574-26.501
	c0.142-7.473-3.447-14.838-10.185-19.18c-7.757-4.996-17.449-4.573-24.63,0.313l14.632,9.427c1.246,0.799,1.603,2.458,0.801,3.699
	l-6.516,10.121c-0.799,1.241-2.46,1.595-3.701,0.791l-14.632-9.427c-1.477,8.553,2.144,17.553,9.899,22.55
	c6.736,4.345,14.921,4.573,21.668,1.356c13.903,9.282,27.817,18.556,41.717,27.827c1.22,0.817,3.747,1.289,5.46,0.627
	C161.119,156.808,165.708,149.686,165.287,142.498z"/>
</svg>
