<?xml version="1.0" encoding="utf-8"?>
<!-- Generator: Adobe Illustrator 18.1.1, SVG Export Plug-In . SVG Version: 6.00 Build 0)  -->
<svg version="1.1" id="Layer_1" xmlns="http://www.w3.org/2000/svg" xmlns:xlink="http://www.w3.org/1999/xlink" x="0px" y="0px"
	 viewBox="0 0 850.39 850.39" enable-background="new 0 0 850.39 850.39" xml:space="preserve">
<path fill="#333333" d="M813.415,65.973c-6.554-7.336-17.077-9.636-26.094-5.703L56.358,380.253
	c-11.483,5.098-16.659,18.54-11.562,30.023c2.15,4.843,5.924,8.784,10.669,11.142l174.505,86.026l43.491,260.944
	c1.723,12.445,13.208,21.138,25.654,19.415c5.015-0.694,9.655-3.041,13.185-6.67l137.8-137.8l196.616,140.445
	c10.225,7.3,24.433,4.929,31.733-5.296c1.869-2.617,3.161-5.601,3.792-8.755L818.736,85.791
	C820.222,78.714,818.246,71.353,813.415,65.973z M248.004,465.482l-128.529-63.181l507.774-222.265L248.004,465.482z
	 M319.182,533.092l-21.156,105.78l-22.813-137.004l278.978-210.03L325.395,521.495c-3.157,3.19-5.316,7.232-6.213,11.629V533.092z
	 M333.042,695.808l23.864-119.289l55.662,39.763L333.042,695.808z M644.55,726.045L376.532,534.622l382.846-384.025L644.55,726.045z
	"/>
</svg>
