<?xml version="1.0" encoding="utf-8"?>
<!-- Generator: Adobe Illustrator 18.1.1, SVG Export Plug-In . SVG Version: 6.00 Build 0)  -->
<svg version="1.1" id="Layer_1" xmlns="http://www.w3.org/2000/svg" xmlns:xlink="http://www.w3.org/1999/xlink" x="0px" y="0px"
	 viewBox="0 0 850.39 850.39" enable-background="new 0 0 850.39 850.39" xml:space="preserve">
<path fill="#333333" d="M750.533,505.566l-0.45-0.425c-7.081-6.531-28.776-27.65-36.107-36.883
	c-7.571-8.686-7.645-21.605-0.175-30.377c8.132-14.288,24.447-36.207,41.687-59.403c55.25-74.317,90.932-125.738,83.575-162.296
	l-3.954-19.518H631.051c-13.206,45.01-32.127,88.142-56.3,128.34c-32.554,57.877-53.923,76.018-61.43,79.221l-1.176-0.35
	c-5.776-9.771-8.722-20.955-8.508-32.304c-1.215-24.858-0.756-49.77,1.376-74.567c2.761-24.954,2.635-50.143-0.375-75.067
	l-6.206-30.527c-36.35-9.257-73.802-13.467-111.3-12.511c-66.134-0.676-85.552,8.883-95.085,17.291l-31.453,27.75l39.886,13.412
	c15.189,5.004,20.218,11.01,24.347,40.211c3.298,26.418,3.701,53.116,1.201,79.621c-4.179,40.962-14.213,48.594-14.738,48.994
	c-1.727-0.601-16.39-7.006-41.838-60.78c-17.741-37.208-33.205-81.423-44.515-113.577c-12.937-36.883-10.61-29.026-17.19-46.467
	H10.369l12.761,33.03c53.248,137.899,102.117,245.595,167.4,322.94c68.603,85.475,173.435,133.678,282.979,130.117h24.297v-24.297
	c-0.67-17.366,1.322-34.732,5.905-51.496c2.461-7.044,5.533-13.86,9.183-20.368c5.005-9.659,10.009-13.787,12.812-14.388
	c4.33,0.136,8.461,1.854,11.61,4.829c13.665,11.16,25.886,23.978,36.383,38.159c16.171,22.961,37.184,42.094,61.555,56.05
	c18.32,7.494,37.908,11.402,57.702,11.51h147.007l-1.051-25.298c-1.551-37.834-31.353-85.076-88.504-140.626L750.533,505.566z
	 M694.032,622.896h-0.4c-12.308-0.107-24.521-2.168-36.182-6.105c-18.17-11.046-33.793-25.817-45.841-43.339
	c-12.954-17.383-28.092-33.025-45.04-46.542c-11.292-9.094-25.266-14.212-39.761-14.563c-3.905-0.006-7.8,0.422-11.61,1.276
	c-20.156,5.583-36.71,19.976-45.04,39.16c-12.088,21.258-18.909,45.102-19.893,69.537c-87.031-3.119-168.335-44.183-222.5-112.376
	c-55.85-66.084-99.789-158.517-146.356-275.997h92.733c1.526,4.279,3.178,8.983,5.004,13.963
	c13.923,41.843,30.129,82.891,48.544,122.96c28.175,58.127,53.873,84.05,83.4,84.05c14.793-0.025,28.803-6.65,38.209-18.066
	c17.349-24.941,26.434-54.698,25.973-85.076c1.841-27.01,1.07-54.135-2.302-80.998c-1.53-14.903-5.601-29.434-12.036-42.964
	c32.172-1.133,64.383,0.365,96.311,4.479c1.614,20.549,1.354,41.203-0.776,61.705c-3.553,58.277-7.206,118.406,23.621,146.556
	c3.415,3.066,7.228,5.658,11.335,7.707l15.689,4.829c6.055-1.877,41.137,15.939,107.597-100.09
	c19.774-34.711,37.074-70.775,51.771-107.922c24.747,0,109.073,0,118.982,0c-19.912,36.681-43.013,71.538-69.037,104.168
	c-16.14,20.642-31.175,42.124-45.04,64.358c-17.237,25.768-15.716,59.75,3.753,83.875l0.3,0.375
	c12.977,14.921,26.76,29.122,41.287,42.538c26.372,23.549,48.623,51.34,65.834,82.224h-88.529V622.896z"/>
</svg>
