<?xml version="1.0" encoding="utf-8"?>
<!-- Generator: Adobe Illustrator 18.1.1, SVG Export Plug-In . SVG Version: 6.00 Build 0)  -->
<svg version="1.1" id="Layer_1" xmlns="http://www.w3.org/2000/svg" xmlns:xlink="http://www.w3.org/1999/xlink" x="0px" y="0px"
	 viewBox="0 0 850.39 850.39" enable-background="new 0 0 850.39 850.39" xml:space="preserve">
<path fill="#010101" d="M800.332,415.272c-1.909,203.75-168.628,367.375-372.379,365.466c-60.859-0.57-120.632-16.188-173.992-45.46
	L50.027,800.086l66.487-196.104C81.876,547.138,63.6,481.837,63.698,415.272C65.564,211.847,231.986,48.453,435.41,50.32
	C636.2,52.162,798.52,214.482,800.363,415.272H800.332z M431.983,108.005c-170.292-0.482-308.835,136.977-309.691,307.267
	c-0.034,64.822,20.649,127.959,59.03,180.197l-38.711,114.084l118.992-37.81c143.12,93.933,335.289,54.059,429.222-89.061
	c32.657-49.757,50.299-107.864,50.817-167.379C740.787,245.02,602.268,107.557,431.983,108.005z M617.991,499.468
	c-2.268-3.728-8.295-5.965-17.305-10.439c-9.01-4.474-53.562-26.191-61.671-29.142c-8.109-2.952-14.323-4.474-20.319,4.474
	s-23.332,29.142-28.583,35.107c-5.251,5.965-10.532,6.742-19.573,2.268c-26.572-10.523-51.118-25.577-72.545-44.49
	c-19.734-18.107-36.665-39.049-50.238-62.137c-5.251-8.948-0.559-13.794,3.946-18.268c4.505-4.474,9.041-10.47,13.546-15.69
	c3.715-4.516,6.75-9.551,9.01-14.944c2.452-5.013,2.171-10.932-0.746-15.69c-2.237-4.474-20.319-48.56-27.962-66.487
	s-15.037-14.944-20.319-14.944s-11.123-0.652-17.336-0.652c-9.234,0.238-17.955,4.3-24.078,11.216
	c-20.545,19.351-31.972,46.47-31.472,74.689c2.961,33.831,15.796,66.047,36.909,92.646c37.596,58.748,91.069,105.64,154.224,135.241
	c91.807,35.853,91.807,23.892,108.367,22.4c25.436-4.899,47.595-20.372,60.956-42.564c5.872-13.393,7.676-28.216,5.188-42.626
	V499.468z"/>
</svg>
