<?xml version="1.0" encoding="utf-8"?>
<!-- Generator: Adobe Illustrator 24.0.1, SVG Export Plug-In . SVG Version: 6.00 Build 0)  -->
<svg version="1.1" id="Layer_1" xmlns="http://www.w3.org/2000/svg" xmlns:xlink="http://www.w3.org/1999/xlink" x="0px" y="0px"
	 viewBox="0 0 454 454" style="enable-background:new 0 0 454 454;" xml:space="preserve">
<style type="text/css">
	.st0{fill:#FA8807;}
	.st1{fill:#424953;}
</style>
<path class="st0" d="M312.7,306c-3.8,0-6.9-3.1-7-6.9c-0.1-3.9,3-7,6.9-7.1l67.7-1h0.1c3.8,0,6.9,3.1,7,6.9c0.1,3.9-3,7-6.9,7.1
	l-67.7,1C312.8,306,312.7,306,312.7,306z"/>
<path class="st0" d="M313.3,346.6c-3.8,0-6.9-3.1-7-6.9c-0.1-3.9,3-7,6.9-7.1l32.2-0.5c3.9-0.1,7,3,7.1,6.9c0.1,3.9-3,7-6.9,7.1
	l-32.2,0.5C313.4,346.6,313.3,346.6,313.3,346.6z"/>
<path class="st1" d="M250.8,345.5H46.9C21.1,345.5,0,324.4,0,298.5V80.2c0-25.9,21.1-46.9,46.9-46.9h259.7
	c25.9,0,46.9,21.1,46.9,46.9v131.9c0,3.9-3.1,7-7,7c-3.9,0-7-3.1-7-7V80.2c0-18.2-14.8-33-33-33H46.9c-18.2,0-33,14.8-33,33v218.3
	c0,18.2,14.8,33,33,33h203.9c3.9,0,7,3.1,7,7C257.8,342.3,254.7,345.5,250.8,345.5z"/>
<path class="st1" d="M346.5,128.5H7c-3.9,0-7-3.1-7-7s3.1-7,7-7h339.5c3.9,0,7,3.1,7,7S350.4,128.5,346.5,128.5z"/>
<path class="st1" d="M100.2,100.7c-10.8,0-19.5-8.8-19.5-19.5s8.8-19.5,19.5-19.5s19.5,8.8,19.5,19.5S111,100.7,100.2,100.7z
	 M100.2,75.6c-3.1,0-5.6,2.5-5.6,5.6s2.5,5.6,5.6,5.6s5.6-2.5,5.6-5.6S103.3,75.6,100.2,75.6z"/>
<path class="st1" d="M43.9,100.6c-10.8,0-19.5-8.8-19.5-19.5s8.8-19.5,19.5-19.5S63.4,70.2,63.4,81S54.7,100.6,43.9,100.6z
	 M43.9,75.5c-3.1,0-5.6,2.5-5.6,5.6c0,3.1,2.5,5.6,5.6,5.6s5.6-2.5,5.6-5.6C49.4,78,46.9,75.5,43.9,75.5z"/>
<path class="st1" d="M156.6,100.9c-10.8,0-19.5-8.8-19.5-19.5s8.8-19.5,19.5-19.5c10.8,0,19.5,8.8,19.5,19.5
	S167.4,100.9,156.6,100.9z M156.6,75.8c-3.1,0-5.6,2.5-5.6,5.6s2.5,5.6,5.6,5.6s5.6-2.5,5.6-5.6S159.7,75.8,156.6,75.8z"/>
<path class="st0" d="M440.9,421.4c-0.4,0-0.7,0-1.1-0.1l-56.3-9c-54.5,20-115.4-7.4-136.4-61.7c-10.3-26.6-9.6-55.6,1.9-81.8
	s32.5-46.2,59.1-56.5c11.8-4.6,24.2-7,36.9-7.2c0,0,0.1,0,0.1,0c0.6,0,1.3,0,1.9,0c58,0,105.6,46.6,106.7,104.8
	c0.4,24.1-7.3,47.5-21.9,66.6l15.5,35c1,2.3,0.7,5.1-0.9,7.1C445.1,420.4,443.1,421.4,440.9,421.4z M382.8,398.1
	c0.4,0,0.7,0,1.1,0.1l45.4,7.2l-12-27.1c-1.1-2.4-0.7-5.3,1-7.3c14.2-17.1,21.8-38.7,21.4-60.9c-0.9-50.6-42.3-91.1-92.7-91.1
	c-0.5,0-1,0-1.5,0c0,0-0.1,0-0.1,0c-11.1,0.2-21.9,2.3-32.2,6.3c-23.1,9-41.4,26.4-51.4,49.1c-10,22.7-10.6,47.9-1.6,71.1
	c9,23.1,26.4,41.4,49.1,51.4c22.7,10,47.9,10.6,71.1,1.6C381.1,398.3,381.9,398.1,382.8,398.1z"/>
</svg>
