<svg xmlns="http://www.w3.org/2000/svg" width="34" height="34" viewBox="0 0 34 34"><defs><style>.a{fill:#fa8807;}.b{fill:#424953;}</style></defs><path class="a" d="M31.875,15.938V26.563a5.312,5.312,0,0,1-5.312,5.313H7.438a5.312,5.312,0,0,1-5.312-5.312V7.438A5.312,5.312,0,0,1,7.438,2.125H18.063V0H7.438A7.437,7.437,0,0,0,0,7.438V26.563A7.437,7.437,0,0,0,7.438,34H26.563A7.437,7.437,0,0,0,34,26.563V15.938Z"/><path class="b" d="M102.149,78.2l-1.509,1.509,7.438,7.437a1.062,1.062,0,0,0,1.5,0l17-17-1.5-1.509L108.832,84.9Z" transform="translate(-93.957 -64.082)"/></svg>