<svg xmlns="http://www.w3.org/2000/svg" width="139.811" height="139.811" viewBox="0 0 139.811 139.811"><g transform="translate(0)"><path d="M189.811,230.808a69.905,69.905,0,1,1-69.905-69.9A69.906,69.906,0,0,1,189.811,230.808Z" transform="translate(-50 -160.905)" fill="#eceded"/><g transform="translate(26.13 34.972)"><path d="M100.8,219.336H96.606a28.086,28.086,0,0,0-1.211-4.279l3.5-2.016a1.76,1.76,0,0,0,.64-2.4l-3.5-6.065a1.751,1.751,0,0,0-2.4-.646L90,206.028a27.739,27.739,0,0,0-3.175-3.1l2.022-3.5a1.759,1.759,0,0,0-.648-2.4l-6.063-3.5a1.754,1.754,0,0,0-2.4.642L77.641,197.8a27.1,27.1,0,0,0-4.319-1.094v-4.049a1.755,1.755,0,0,0-1.75-1.758h-6.3v12.753a21.569,21.569,0,0,1,20.886,33.7H100.1a1.761,1.761,0,0,0-.819-1.092l-3.628-2.1a27.959,27.959,0,0,0,1.092-4.307H100.8a1.75,1.75,0,0,0,1.744-1.756v-7A1.749,1.749,0,0,0,100.8,219.336Z" transform="translate(-60.363 -164.907)" fill="#fa8807"/><path d="M146.95,178.11H65.609a2.753,2.753,0,0,0-2.754,2.756v71.688a2.752,2.752,0,0,0,2.754,2.758H146.95a2.756,2.756,0,0,0,2.756-2.758V180.866A2.757,2.757,0,0,0,146.95,178.11Zm-17.231,5.972a3.677,3.677,0,1,1-3.679,3.675A3.674,3.674,0,0,1,129.72,184.082Zm-10.8,0a3.677,3.677,0,1,1-3.675,3.675A3.676,3.676,0,0,1,118.92,184.082ZM144.19,249.8H68.366V197.414H144.19Zm-3.671-58.362a3.677,3.677,0,1,1,3.671-3.679A3.679,3.679,0,0,1,140.519,191.436Z" transform="translate(-62.855 -178.11)" fill="#424953"/><g transform="translate(42.117 23.193)"><g transform="translate(0)"><path d="M.643,0H7.521a.639.639,0,0,1,.639.639V6.218a.642.642,0,0,1-.642.642H.642A.642.642,0,0,1,0,6.218V.643A.643.643,0,0,1,.643,0Z" transform="translate(12.948)" fill="#424953"/><path d="M.64,0H7.52a.644.644,0,0,1,.644.644v5.57a.643.643,0,0,1-.643.643H.643A.643.643,0,0,1,0,6.215V.64A.64.64,0,0,1,.64,0Z" transform="translate(0 12.781) rotate(-60.035)" fill="#424953"/><path d="M.641,0H6.215a.643.643,0,0,1,.643.643V7.52a.64.64,0,0,1-.64.64H.642A.642.642,0,0,1,0,7.519V.641A.641.641,0,0,1,.641,0Z" transform="translate(0.509 23.308) rotate(-30.005)" fill="#424953"/><path d="M.642,0h6.88a.642.642,0,0,1,.642.642V6.212a.641.641,0,0,1-.641.641H.641A.641.641,0,0,1,0,6.211V.642A.642.642,0,0,1,.642,0Z" transform="translate(13.963 28.347)" fill="#424953"/><path d="M96.793,206.348a1.3,1.3,0,0,1-.48-1.785l2.775-4.805a1.31,1.31,0,0,1,1.783-.488l3.677,2.136a1.3,1.3,0,0,1,.476,1.779l-2.777,4.8a1.3,1.3,0,0,1-1.779.482Z" transform="translate(-70.604 -179.627)" fill="#424953"/><path d="M100.621,201.493a1.294,1.294,0,0,1-1.785-.478l-2.773-4.807a1.3,1.3,0,0,1,.474-1.787l3.681-2.114a1.3,1.3,0,0,1,1.781.472l2.775,4.807a1.315,1.315,0,0,1-.476,1.793Z" transform="translate(-70.863 -186.826)" fill="#424953"/></g><path d="M98.659,191.928a12.706,12.706,0,1,0,12.706,12.712A12.709,12.709,0,0,0,98.659,191.928Zm0,18.776a6.067,6.067,0,1,1,6.07-6.063A6.066,6.066,0,0,1,98.659,210.7Z" transform="translate(-81.122 -187.033)" fill="#424953"/></g></g></g></svg>