<svg xmlns="http://www.w3.org/2000/svg" width="139.811" height="139.809" viewBox="0 0 139.811 139.809">
  <g id="Group_75" data-name="Group 75" transform="translate(-682.955 -635.927)">
    <path id="Path_69" data-name="Path 69" d="M822.766,705.828a69.905,69.905,0,1,1-69.905-69.9A69.9,69.9,0,0,1,822.766,705.828Z" transform="translate(0 0)" fill="#eceded"/>
    <path id="Path_70" data-name="Path 70" d="M746,676.546a16.6,16.6,0,1,1-15.176-9.869,16.519,16.519,0,0,1,11.759,4.937l8.436-5.545a26.029,26.029,0,1,0,3.4,4.937Z" transform="translate(21.949 21.423)" fill="#fa8807"/>
    <path id="Path_71" data-name="Path 71" d="M777.895,677.716l-7.241-3.46-2.793,1.831a33.639,33.639,0,1,1-3.313-4.809l-19.142,12.58a9.857,9.857,0,0,0-6.189-2.2,10.208,10.208,0,1,0,9.511,7.009l-7.962,5.236-1.146-1.748L771.3,671.329l7.543,3.466,12.576-8.261-7.556-3.47L786.1,661.6l-2.067-3.153-2.236,1.476-.2-8.314-12.564,8.265.193,8.31-2.636,1.73-.213-9.484,1.435-.951a43.333,43.333,0,1,0,11.761,17.133Z" transform="translate(13.554 13.027)" fill="#424953"/>
  </g>
</svg>
