<?xml version="1.0" encoding="utf-8"?>
<!-- Generator: Adobe Illustrator 24.0.1, SVG Export Plug-In . SVG Version: 6.00 Build 0)  -->
<svg version="1.1" baseProfile="tiny" id="Layer_1" xmlns="http://www.w3.org/2000/svg" xmlns:xlink="http://www.w3.org/1999/xlink"
	 x="0px" y="0px" viewBox="0 0 184.3 76.5" xml:space="preserve">
<g id="Group_97" transform="translate(-661.5 -128)">
	<g id="Group_96" transform="translate(488 -116)">
		<g id="Path_100" transform="translate(159.883 296.027)">
			<path fill="#FA8807" d="M47.6,17.9H16.2V-3.2h24.3L47.6,17.9z"/>
			<path fill="#FA8807" d="M46.3,16.9L39.8-2.2H17.2v19.1H46.3 M47.6,17.9H16.2V-3.2h24.3L47.6,17.9z"/>
		</g>
		<path id="Path_101" fill="#1A1818" d="M175.7,250.8v38.1h23.7l-11.4-38.1"/>
		<g id="Path_98" transform="translate(187.324 251.724)">
			<path fill="#FA8807" d="M11.7,20.2H38V-1H5.2L11.7,20.2z"/>
			<path fill="#FA8807" d="M37.1,19.2V0H6.5l5.9,19.1H37.1 M38,20.2H11.7L5.2-1H38V20.2z"/>
		</g>
		<g id="Path_99" transform="translate(196.269 278.801)">
			<path fill="#1A1818" d="M27.3,35.1h1.7V-3H4.6l11.6,38.1H27.3z"/>
			<path fill="#1A1818" d="M27.3,34.1l0.7,0V-2H5.9l11,36.1H27.3 M29.1,35.1c0,0-0.2,0-0.4,0c-0.5,0-1.3,0-1.3,0H16.2L4.6-3h24.5
				V35.1z"/>
		</g>
	</g>
	<g>
		<path fill="#333333" d="M753.4,158h-17.3l-3.7,8.3h-3.4l14.2-31.1h3.2l14.2,31.1h-3.5L753.4,158z M752.2,155.4l-7.5-16.7
			l-7.5,16.7H752.2z"/>
		<path fill="#333333" d="M767.6,165.5c-2.1-0.7-3.8-1.7-4.9-2.9l1.3-2.5c1.1,1.1,2.6,2,4.5,2.7c1.9,0.7,3.8,1,5.8,1
			c2.8,0,4.9-0.5,6.3-1.5c1.4-1,2.1-2.3,2.1-4c0-1.2-0.4-2.2-1.1-3s-1.7-1.3-2.8-1.7s-2.6-0.8-4.6-1.3c-2.3-0.6-4.2-1.2-5.6-1.7
			c-1.4-0.5-2.6-1.4-3.6-2.5c-1-1.1-1.5-2.6-1.5-4.6c0-1.6,0.4-3,1.2-4.3c0.8-1.3,2.1-2.3,3.8-3.1c1.7-0.8,3.8-1.2,6.4-1.2
			c1.8,0,3.5,0.2,5.2,0.7c1.7,0.5,3.2,1.2,4.4,2l-1.1,2.6c-1.3-0.9-2.7-1.5-4.2-1.9c-1.5-0.4-2.9-0.6-4.4-0.6
			c-2.7,0-4.8,0.5-6.1,1.6c-1.4,1.1-2.1,2.4-2.1,4.1c0,1.2,0.4,2.2,1.1,3s1.7,1.3,2.8,1.7c1.1,0.4,2.7,0.8,4.6,1.3
			c2.3,0.6,4.1,1.1,5.5,1.7c1.4,0.5,2.6,1.4,3.6,2.5c1,1.1,1.5,2.6,1.5,4.5c0,1.6-0.4,3-1.3,4.3s-2.1,2.3-3.9,3.1
			c-1.7,0.8-3.9,1.1-6.4,1.1C772,166.6,769.8,166.2,767.6,165.5z"/>
		<path fill="#333333" d="M825.3,135.3v31.1h-3.2v-24.9l-12.2,20.9h-1.6l-12.2-20.8v24.7H793v-31.1h2.7l13.5,23l13.4-23H825.3z"/>
		<path fill="#333333" d="M835.4,135.3h3.3v31.1h-3.3V135.3z"/>
	</g>
	<g>
		<path fill="#333333" d="M733.3,196.4c-1.4-0.5-2.4-1.1-3.2-1.9l0.8-1.6c0.7,0.7,1.7,1.3,2.9,1.8c1.2,0.4,2.4,0.7,3.7,0.7
			c1.8,0,3.1-0.3,4-1c0.9-0.7,1.3-1.5,1.3-2.6c0-0.8-0.2-1.4-0.7-1.9c-0.5-0.5-1.1-0.8-1.8-1.1c-0.7-0.3-1.7-0.5-2.9-0.8
			c-1.5-0.4-2.7-0.7-3.6-1.1c-0.9-0.4-1.7-0.9-2.3-1.6c-0.6-0.7-1-1.7-1-2.9c0-1,0.3-1.9,0.8-2.8c0.5-0.8,1.4-1.5,2.5-2
			c1.1-0.5,2.5-0.7,4.1-0.7c1.1,0,2.3,0.2,3.4,0.5c1.1,0.3,2,0.7,2.8,1.3l-0.7,1.7c-0.8-0.6-1.7-1-2.7-1.2c-1-0.3-1.9-0.4-2.8-0.4
			c-1.8,0-3.1,0.3-4,1c-0.9,0.7-1.3,1.6-1.3,2.6c0,0.8,0.2,1.4,0.7,1.9s1.1,0.9,1.8,1.1c0.7,0.3,1.7,0.5,3,0.8
			c1.5,0.4,2.7,0.7,3.6,1.1c0.9,0.4,1.7,0.9,2.3,1.6c0.6,0.7,0.9,1.7,0.9,2.9c0,1-0.3,1.9-0.8,2.8c-0.5,0.8-1.4,1.5-2.5,2
			s-2.5,0.7-4.1,0.7C736.1,197.1,734.7,196.9,733.3,196.4z"/>
		<path fill="#333333" d="M753.3,178.7h-7v-1.8h16.2v1.8h-7v18.2h-2.1V178.7z"/>
		<path fill="#333333" d="M767.4,194.9c-1.5-1.5-2.2-3.7-2.2-6.5v-11.5h2.1v11.4c0,2.3,0.5,4.1,1.6,5.2c1,1.1,2.6,1.7,4.5,1.7
			c2,0,3.5-0.6,4.6-1.7c1-1.1,1.6-2.9,1.6-5.2v-11.4h2.1v11.5c0,2.8-0.7,5-2.2,6.5c-1.4,1.5-3.5,2.2-6.1,2.2
			S768.9,196.4,767.4,194.9z"/>
		<path fill="#333333" d="M788.1,176.9h8.2c2.1,0,4,0.4,5.6,1.3s2.9,2,3.8,3.5c0.9,1.5,1.3,3.2,1.3,5.2c0,1.9-0.4,3.7-1.3,5.2
			c-0.9,1.5-2.2,2.7-3.8,3.5c-1.6,0.8-3.5,1.3-5.6,1.3h-8.2V176.9z M796.1,195.1c1.8,0,3.3-0.3,4.6-1c1.3-0.7,2.3-1.7,3.1-2.9
			c0.7-1.2,1.1-2.6,1.1-4.2c0-1.6-0.4-3-1.1-4.2c-0.7-1.2-1.7-2.2-3.1-2.9c-1.3-0.7-2.9-1-4.6-1h-5.9v16.4H796.1z"/>
		<path fill="#333333" d="M811.7,176.9h2.1v20h-2.1V176.9z"/>
		<path fill="#333333" d="M823.7,195.8c-1.6-0.9-2.9-2.1-3.8-3.6s-1.4-3.3-1.4-5.2s0.5-3.7,1.4-5.2c0.9-1.5,2.2-2.8,3.8-3.6
			c1.6-0.9,3.4-1.3,5.4-1.3s3.8,0.4,5.4,1.3c1.6,0.9,2.8,2.1,3.8,3.6c0.9,1.6,1.4,3.3,1.4,5.2s-0.5,3.7-1.4,5.2
			c-0.9,1.6-2.2,2.8-3.8,3.6c-1.6,0.9-3.4,1.3-5.4,1.3S825.3,196.7,823.7,195.8z M833.4,194.1c1.3-0.7,2.3-1.7,3-3
			c0.7-1.3,1.1-2.7,1.1-4.2c0-1.6-0.4-3-1.1-4.2s-1.7-2.3-3-3c-1.3-0.7-2.7-1.1-4.3-1.1s-3,0.4-4.3,1.1c-1.3,0.7-2.3,1.7-3,3
			s-1.1,2.7-1.1,4.2c0,1.6,0.4,3,1.1,4.2c0.7,1.3,1.7,2.3,3,3c1.3,0.7,2.7,1.1,4.3,1.1S832.1,194.9,833.4,194.1z"/>
	</g>
</g>
<g>
</g>
<g>
</g>
<g>
</g>
<g>
</g>
<g>
</g>
</svg>
