<svg xmlns="http://www.w3.org/2000/svg" width="202.243" height="82" viewBox="0 0 202.243 82"><defs><style>.a{fill:#e7c501;}.b,.d{fill:#1a1818;}.b{stroke:rgba(0,0,0,0);}.c{fill:#eed600;}.e{fill:#333;font-size:36px;font-family:Montserrat-Regular, Montserrat;}.f,.g{stroke:none;}.g{fill:rgba(0,0,0,0);}</style></defs><g transform="translate(-155.5 -115)"><g class="a" transform="translate(141.883 164.027)"><path class="f" d="M46.359,23.973H14.526V2.566H39.109Z"/><path class="g" d="M 44.96498489379883 22.9730396270752 L 38.39233016967773 3.56588888168335 L 15.52607250213623 3.56588888168335 L 15.52607250213623 22.9730396270752 L 44.96498489379883 22.9730396270752 M 46.35945129394531 23.9730396270752 L 14.52607250213623 23.9730396270752 L 14.52607250213623 2.56588888168335 L 39.10945129394531 2.56588888168335 L 46.35945129394531 23.9730396270752 Z"/></g><path class="b" d="M5.186,3.67V42.3H29.2L17.6,3.67" transform="translate(150.814 120.33)"/><g class="c" transform="translate(169.324 119.724)"><path class="f" d="M10.28,25.683H37.018V4.276H3.689Z"/><path class="g" d="M 36.01848983764648 24.68305969238281 L 36.01848983764648 5.275920391082764 L 5.042993068695068 5.275920391082764 L 11.01830768585205 24.68305969238281 L 36.01848983764648 24.68305969238281 M 37.01848983764648 25.68305969238281 L 10.27987003326416 25.68305969238281 L 3.688770055770874 4.275920391082764 L 37.01848983764648 4.275920391082764 L 37.01848983764648 25.68305969238281 Z"/></g><g class="d" transform="translate(178.269 146.801)"><path class="f" d="M26.274,41.2h1.754V2.566H3.224L14.974,41.2Z"/><path class="g" d="M 26.27375793457031 40.19866561889648 L 27.02773857116699 40.19866180419922 L 27.02773857116699 3.565886497497559 L 4.573103904724121 3.565886497497559 L 15.71480274200439 40.19866561889648 L 26.27375793457031 40.19866561889648 M 28.02773857116699 41.19866561889648 C 28.02774238586426 41.19865798950195 27.83290481567383 41.19865798950195 27.5730094909668 41.19865798950195 C 27.05331420898438 41.19865798950195 26.27376747131348 41.19866561889648 26.27376747131348 41.19866561889648 L 14.97371768951416 41.19866561889648 L 3.223728179931641 2.565886497497559 L 28.02773857116699 2.565886497497559 L 28.02773857116699 41.19866561889648 Z"/></g><text class="e" transform="translate(215.743 150)"><tspan x="0" y="0">ASMI</tspan></text><text class="e" transform="translate(215.743 188)"><tspan x="0" y="0">STUDIO</tspan></text></g></svg>