<svg xmlns="http://www.w3.org/2000/svg" width="55" height="85.25" viewBox="0 0 55 85.25">
  <g id="Group_114" data-name="Group 114" transform="translate(-1505 -833)">
    <path id="Path_164" data-name="Path 164" d="M27.5,0A27.5,27.5,0,0,1,55,27.5c0,15.188-28.75,57.75-28.75,57.75S0,42.688,0,27.5A27.5,27.5,0,0,1,27.5,0Z" transform="translate(1505 833)" fill="#fa8807"/>
    <g id="Логотип_мини" data-name="Логотип мини" transform="translate(1386.288 734.908)">
      <path id="Path_90" data-name="Path 90" d="M32.524,14.669h-18V2.566h13.9Z" transform="translate(117.706 130.515)" fill="#fff"/>
      <path id="Path_91" data-name="Path 91" d="M5.186,3.67V25.511H18.762L12.2,3.67" transform="translate(126.814 105.33)" fill="#fff"/>
      <path id="Path_92" data-name="Path 92" d="M7.415,16.379H22.532V4.276H3.689Z" transform="translate(137.93 104.724)" fill="#fff"/>
      <path id="Path_93" data-name="Path 93" d="M16.255,24.408h.992V2.566H3.224L9.867,24.408Z" transform="translate(143.189 120.776)" fill="#fff"/>
    </g>
  </g>
</svg>
