<svg xmlns="http://www.w3.org/2000/svg" width="140.004" height="140" viewBox="0 0 140.004 140"><g transform="translate(9)"><path d="M506.481,349.658a70,70,0,1,1-70-70A70,70,0,0,1,506.481,349.658Z" transform="translate(-375.477 -279.661)" fill="#eceded"/><g transform="translate(8 31)"><path d="M406.2,346.6c-1.3-.265-2.6-.564-3.857-.944l-.623-.167h-.509c-.676,0-2.056,0-9.267,3.806l2.465-6.931-2.168-1.476c-6.729-4.584-10.436-10.711-10.436-17.252,0-13.161,14.944-23.866,33.318-23.866,9.988,0,18.94,3.179,25.052,8.181,1.521-.134,3.061-.222,4.633-.222,1.6,0,3.171.094,4.724.232-7.008-8.954-19.789-14.983-34.409-14.983-22.117,0-40.11,13.751-40.11,30.658,0,7.973,4.079,15.616,11.274,21.3l-6.829,19.209,7.969-4.58a146.114,146.114,0,0,1,13.735-7.181,50.377,50.377,0,0,0,9.227,1.667A27.363,27.363,0,0,1,406.2,346.6Z" transform="translate(-375.015 -292.976)" fill="#fa8807"/><path d="M464.693,329.151c0-15.048-16.424-27.259-36.709-27.259s-36.717,12.211-36.717,27.259,16.444,27.261,36.717,27.261a47.682,47.682,0,0,0,13.778-2c1.415-.434,15.6,7.724,15.6,7.724l-4.59-12.925C460.085,344.233,464.693,337.1,464.693,329.151Zm-50.862,3.857-3.31-1.736-3.312,1.736.633-3.686-2.681-2.609,3.7-.537,1.655-3.352,1.651,3.352,3.7.537-2.679,2.609Zm19.147,1.508-5.148-2.707-5.144,2.707.981-5.73-4.158-4.063,5.752-.831,2.569-5.213,2.577,5.213,5.746.831L432,328.786Zm15.478-1.508-3.308-1.736-3.31,1.736.633-3.686-2.681-2.609,3.7-.537,1.653-3.352,1.653,3.352,3.7.537-2.677,2.609Z" transform="translate(-358.188 -283.744)" fill="#424953"/></g></g></svg>