<svg xmlns="http://www.w3.org/2000/svg" width="68" height="73" viewBox="0 0 68 73"><defs><style>.a{fill:#424953;}.b{fill:#fa8807;}</style></defs><g transform="translate(-44.058 -36.5)"><path class="a" d="M353.986,397.5a3.046,3.046,0,1,0,3.046,3.046A3.046,3.046,0,0,0,353.986,397.5Zm0,4.315a1.269,1.269,0,1,1,1.269-1.269A1.269,1.269,0,0,1,353.986,401.815Z" transform="translate(-257.244 -299.549)"/><path class="b" d="M403.7,397.5a3.046,3.046,0,1,0,3.046,3.046A3.046,3.046,0,0,0,403.7,397.5Zm0,4.315a1.269,1.269,0,1,1,1.269-1.269A1.269,1.269,0,0,1,403.7,401.815Z" transform="translate(-298.561 -299.549)"/><path class="a" d="M182.972,399.214a.888.888,0,0,0-.888.888v3.807a.888.888,0,0,0,1.777,0V400.1A.888.888,0,0,0,182.972,399.214Z" transform="translate(-115.834 -301.009)"/><path class="a" d="M205.6,399.214a.888.888,0,0,0-.888.888v3.807a.888.888,0,0,0,1.777,0V400.1A.888.888,0,0,0,205.6,399.214Z" transform="translate(-134.825 -301.009)"/><path class="a" d="M228.23,399.214a.888.888,0,0,0-.888.888v3.807a.888.888,0,1,0,1.777,0V400.1A.888.888,0,0,0,228.23,399.214Z" transform="translate(-153.815 -301.009)"/><path class="a" d="M250.858,399.214a.888.888,0,0,0-.888.888v3.807a.888.888,0,0,0,1.777,0V400.1A.888.888,0,0,0,250.858,399.214Z" transform="translate(-172.805 -301.009)"/><path class="b" d="M273.488,399.214a.888.888,0,0,0-.888.888v3.807a.888.888,0,0,0,1.777,0V400.1A.888.888,0,0,0,273.488,399.214Z" transform="translate(-191.797 -301.009)"/><path class="a" d="M109.72,70.446H97.872c.032-.665.05-1.334.05-2V52.043a1,1,0,0,0-.51-.88L71.078,36.617a.933.933,0,0,0-.915.005L44.558,51.168a1,1,0,0,0-.5.875V68.826a39.242,39.242,0,0,0,17.949,33.182v5.069a2.384,2.384,0,0,0,2.337,2.423H109.72a2.384,2.384,0,0,0,2.338-2.423V92.824A2.384,2.384,0,0,0,109.72,90.4h-4.538v-.855h4.538a2.384,2.384,0,0,0,2.338-2.423V72.869A2.384,2.384,0,0,0,109.72,70.446ZM50.7,87.179a37.967,37.967,0,0,1-4.719-18.353V52.634l24.649-14L96,52.642V68.449c0,.664-.018,1.332-.052,2h-3.17c.021-.476.032-.953.032-1.427V55.845a1,1,0,0,0-.51-.881L71.15,43.283a.932.932,0,0,0-.915.005L49.673,54.97a1,1,0,0,0-.5.875V69.323A31.8,31.8,0,0,0,62.007,95v4.648A36.6,36.6,0,0,1,50.7,87.179Zm13.642,2.366h4.538V90.4H64.344a2.371,2.371,0,0,0-2.318,2.126A29.84,29.84,0,0,1,51.1,69.323V56.435L70.7,45.3,90.882,56.444V69.019c0,.474-.012.952-.034,1.427h-26.5a2.384,2.384,0,0,0-2.337,2.423V87.123A2.384,2.384,0,0,0,64.344,89.546Zm38.914,1.283H70.807V88.975h32.451Zm6.875,2v14.253a.421.421,0,0,1-.413.428H64.344a.42.42,0,0,1-.412-.428V92.824a.421.421,0,0,1,.412-.428h4.711a.951.951,0,0,0,.789.428H104.22a.951.951,0,0,0,.789-.428h4.711a.421.421,0,0,1,.413.428Zm0-5.7a.421.421,0,0,1-.413.428h-4.631a.96.96,0,0,0-.869-.57H69.844a.961.961,0,0,0-.869.57H64.344a.421.421,0,0,1-.412-.428V72.869a.421.421,0,0,1,.412-.428H109.72a.421.421,0,0,1,.413.428Z"/><path class="b" d="M353.986,277.5a3.046,3.046,0,1,0,3.046,3.046A3.046,3.046,0,0,0,353.986,277.5Zm0,4.315a1.269,1.269,0,1,1,1.269-1.269A1.269,1.269,0,0,1,353.986,281.815Z" transform="translate(-257.244 -200.471)"/><path class="a" d="M403.7,277.5a3.046,3.046,0,1,0,3.046,3.046A3.046,3.046,0,0,0,403.7,277.5Zm0,4.315a1.269,1.269,0,1,1,1.269-1.269A1.269,1.269,0,0,1,403.7,281.815Z" transform="translate(-298.561 -200.471)"/><path class="a" d="M182.972,279.214a.888.888,0,0,0-.888.888v3.807a.888.888,0,0,0,1.777,0V280.1A.888.888,0,0,0,182.972,279.214Z" transform="translate(-115.834 -201.938)"/><path class="b" d="M205.6,279.214a.888.888,0,0,0-.888.888v3.807a.888.888,0,0,0,1.777,0V280.1A.888.888,0,0,0,205.6,279.214Z" transform="translate(-134.825 -201.938)"/><path class="a" d="M228.23,279.214a.888.888,0,0,0-.888.888v3.807a.888.888,0,0,0,1.777,0V280.1A.888.888,0,0,0,228.23,279.214Z" transform="translate(-153.815 -201.938)"/><path class="b" d="M250.858,279.214a.888.888,0,0,0-.888.888v3.807a.888.888,0,0,0,1.777,0V280.1A.888.888,0,0,0,250.858,279.214Z" transform="translate(-172.805 -201.938)"/><path class="a" d="M273.488,279.214a.888.888,0,0,0-.888.888v3.807a.888.888,0,0,0,1.777,0V280.1A.888.888,0,0,0,273.488,279.214Z" transform="translate(-191.797 -201.938)"/></g></svg>