<svg xmlns="http://www.w3.org/2000/svg" width="59.045" height="68.5" viewBox="0 0 59.045 68.5"><defs><style>.a{fill:#fa8807;}.b{fill:#424953;}</style></defs><g transform="translate(-0.266 0)"><path class="a" d="M255.106,314.884V319.9h-5.012a.872.872,0,0,0,0,1.743h5.012v5.012a.872.872,0,1,0,1.743,0v-5.012h5.012a.872.872,0,0,0,0-1.743h-5.012v-5.012a.872.872,0,0,0-1.743,0Zm0,0" transform="translate(-212.792 -268.396)"/><path class="b" d="M2.486,55.27A6.738,6.738,0,0,0,7.26,57.234h.033l20.478-.116A16.126,16.126,0,1,0,44.083,36.271l-.111-20.288v-.25a.873.873,0,0,0-.259-.616L28.7.281a.87.87,0,0,0-.53-.248L27.858,0c-.03,0-.059,0-.087,0L7.018.1A6.785,6.785,0,0,0,.266,6.917L.475,50.482a6.743,6.743,0,0,0,2.01,4.788Zm55.082-2.9A14.381,14.381,0,1,1,43.186,37.989,14.381,14.381,0,0,1,57.567,52.37ZM41.019,14.906l-6.981.034a5.042,5.042,0,0,1-5.066-5.018l-.033-6.956ZM3.469,3.336A5.008,5.008,0,0,1,7.027,1.842l20.162-.1.04,8.185a6.785,6.785,0,0,0,6.784,6.753h.033l8.186-.039.108,19.623a16.132,16.132,0,0,0-15,19.109L7.285,55.49H7.26a5.042,5.042,0,0,1-5.041-5.017L2.009,6.908a5.01,5.01,0,0,1,1.46-3.572Zm0,0" transform="translate(0)"/><path class="a" d="M143.066,221.52H140.11a.872.872,0,1,0,0,1.743h2.956a.872.872,0,1,0,0-1.743Zm0,0" transform="translate(-118.784 -189.34)"/><path class="a" d="M61.665,172.376H86.206a.872.872,0,0,0,0-1.743H61.665a.872.872,0,0,0,0,1.743Zm0,0" transform="translate(-51.735 -145.846)"/><path class="a" d="M61.665,223.263h7.65a.872.872,0,1,0,0-1.743h-7.65a.872.872,0,0,0,0,1.743Zm0,0" transform="translate(-51.735 -189.34)"/></g></svg>