<svg xmlns="http://www.w3.org/2000/svg" width="63" height="55.584" viewBox="0 0 63 55.584"><defs><style>.a{fill:#424953;}.b{fill:#fa8807;}</style></defs><path class="a" d="M56.017,55.584H6.983A6.991,6.991,0,0,1,0,48.6V6.983A6.992,6.992,0,0,1,6.983,0H56.017A6.992,6.992,0,0,1,63,6.983V48.6A6.991,6.991,0,0,1,56.017,55.584ZM6.983,2.08a4.909,4.909,0,0,0-4.9,4.9V48.6a4.909,4.909,0,0,0,4.9,4.9H56.017a4.909,4.909,0,0,0,4.9-4.9V6.983a4.909,4.909,0,0,0-4.9-4.9Zm0,0" transform="translate(0 0)"/><path class="a" d="M61.96,100.17H1.04a1.04,1.04,0,1,1,0-2.08H61.96a1.04,1.04,0,0,1,0,2.08Zm0,0" transform="translate(0 -83.515)"/><path class="a" d="M100.741,40.872a3.291,3.291,0,1,1,3.291-3.291A3.3,3.3,0,0,1,100.741,40.872Zm0-4.5a1.211,1.211,0,1,0,1.211,1.211A1.213,1.213,0,0,0,100.741,36.369Zm0,0" transform="translate(-82.97 -29.194)"/><path class="a" d="M32.678,40.657a3.291,3.291,0,1,1,3.291-3.291A3.3,3.3,0,0,1,32.678,40.657Zm0-4.5a1.211,1.211,0,1,0,1.211,1.211A1.213,1.213,0,0,0,32.678,36.154Zm0,0" transform="translate(-25.02 -29.011)"/><path class="a" d="M168.807,41.086a3.291,3.291,0,1,1,3.291-3.291A3.3,3.3,0,0,1,168.807,41.086Zm0-4.5a1.211,1.211,0,1,0,1.211,1.211A1.212,1.212,0,0,0,168.807,36.584Zm0,0" transform="translate(-140.922 -29.377)"/><path class="a" d="M33.944,229.9a3.626,3.626,0,1,1,3.749-3.624A3.692,3.692,0,0,1,33.944,229.9Zm0-5.168a1.549,1.549,0,1,0,1.669,1.544A1.612,1.612,0,0,0,33.944,224.733Zm0,0" transform="translate(-25.709 -189.57)"/><path class="a" d="M122.674,242.123H107.219a1.04,1.04,0,0,1,0-2.08h15.455a1.04,1.04,0,1,1,0,2.08Zm0,0" transform="translate(-90.402 -204.376)"/><path class="a" d="M33.944,167.471a3.626,3.626,0,1,1,3.749-3.624A3.692,3.692,0,0,1,33.944,167.471Zm0-5.168a1.549,1.549,0,1,0,1.669,1.544A1.612,1.612,0,0,0,33.944,162.3Zm0,0" transform="translate(-25.709 -136.416)"/><path class="a" d="M122.674,179.693H107.219a1.04,1.04,0,0,1,0-2.08h15.455a1.04,1.04,0,0,1,0,2.08Zm0,0" transform="translate(-90.402 -151.222)"/><path class="a" d="M33.944,292.327a3.626,3.626,0,1,1,3.749-3.625A3.692,3.692,0,0,1,33.944,292.327Zm0-5.169a1.549,1.549,0,1,0,1.669,1.544A1.612,1.612,0,0,0,33.944,287.158Zm0,0" transform="translate(-25.709 -242.72)"/><path class="a" d="M147.934,304.549H107.219a1.04,1.04,0,0,1,0-2.08h40.715a1.04,1.04,0,0,1,0,2.08Zm0,0" transform="translate(-90.402 -257.527)"/><path class="b" d="M266.755,174.041h-19.91A1.04,1.04,0,0,1,245.8,173V161.263a1.041,1.041,0,0,1,1.04-1.04h19.91a1.04,1.04,0,0,1,1.04,1.04V173A1.04,1.04,0,0,1,266.755,174.041Zm-18.87-2.08h17.83V162.3h-17.83Zm0,0" transform="translate(-209.282 -136.416)"/></svg>