<svg xmlns="http://www.w3.org/2000/svg" width="139.811" height="139.809" viewBox="0 0 139.811 139.809">
  <g id="Group_43" data-name="Group 43" transform="translate(-577.463 -517.171)">
    <path id="Path_46" data-name="Path 46" d="M717.274,587.072a69.905,69.905,0,1,1-69.907-69.9A69.905,69.905,0,0,1,717.274,587.072Z" fill="#eceded"/>
    <g id="Group_42" data-name="Group 42" transform="translate(585.913 546.358)">
      <g id="Group_41" data-name="Group 41" transform="translate(47.054)">
        <path id="Path_47" data-name="Path 47" d="M639.778,612.6c-8.12,0-16.42-7-29.844-20.774-3.063-3.211-5.141-9.312-5.165-13V544.895a9.657,9.657,0,0,1,6.48-8.759,90.688,90.688,0,0,1,57.061,0,9.8,9.8,0,0,1,6.476,8.761v33.929c-.02,3.708-2.1,9.812-5.161,13C656.2,605.608,647.9,612.6,639.778,612.6Zm0-78.339a87.862,87.862,0,0,0-27.681,4.492,6.962,6.962,0,0,0-4.57,6.135v33.931c.02,3.079,1.9,8.484,4.393,11.094,12.873,13.214,20.721,19.928,27.858,19.928s14.987-6.714,27.864-19.94c2.488-2.588,4.37-7.992,4.384-11.09V544.891a6.966,6.966,0,0,0-4.563-6.135,87.942,87.942,0,0,0-27.685-4.49Z" transform="translate(-604.769 -531.53)" fill="#424953"/>
        <g id="Group_40" data-name="Group 40" transform="translate(5.515 5.492)">
          <path id="Path_48" data-name="Path 48" d="M663.775,538.574a84.82,84.82,0,0,0-53.671.031,4.313,4.313,0,0,0-2.622,3.5v33.909c.016,2.447,1.691,7.175,3.6,9.175,12.07,12.4,19.772,19.109,25.894,19.109s13.828-6.712,25.87-19.081c1.937-2.029,3.61-6.756,3.624-9.184V542.09A4.324,4.324,0,0,0,663.775,538.574Zm-3.6,7.974-23.835,7.659v3.582l23.835-7.659v3.99l-23.835,7.659v3.586l23.835-7.655V561.7l-23.835,7.657v3.6l23.835-7.665v3.99l-23.835,7.653v3.588l23.835-7.657v3.177a5.142,5.142,0,0,1-.15.864l-23.685,7.61V588.1l21.709-6.98c-1.579,1.626-3.616,3.71-5.836,5.856l-15.873,5.112v3.586L646.2,592.5c-3.661,3.112-7.124,5.5-9.22,5.5-4.624,0-15.946-11.625-21.384-17.211a12.232,12.232,0,0,1-1.817-4.823V544.04a78.926,78.926,0,0,1,22.567-3.484v2.083l5.954-1.913a79.551,79.551,0,0,1,8.838,1.14l-14.792,4.758v3.588l21.319-6.85c.839.228,1.683.415,2.516.667Z" transform="translate(-607.482 -534.232)" fill="#fa8807"/>
        </g>
      </g>
      <path id="Path_49" data-name="Path 49" d="M651.481,603.065a35.111,35.111,0,0,1-12.928,7.173,38.922,38.922,0,0,0,5.974-12.993c-2.238-2.059-4.634-4.391-7.246-7.031a124.81,124.81,0,0,0-14.489-.134,8.671,8.671,0,0,0-6.789-4.86c-.23-2.1-.415-4.269-.486-6.557h14.926a14.685,14.685,0,0,1-.39-2.992v-2.523H615.517c.061-1.976.209-3.852.394-5.683a8.672,8.672,0,0,0,7.385-5.687c1.76.085,3.523.15,5.289.15.49,0,.978-.028,1.468-.035v-5.545c-2.218.018-4.433-.012-6.651-.114a8.692,8.692,0,0,0-3.886-4.876c2.526-6.415,5.888-10.2,9.072-10.2a4.427,4.427,0,0,1,1.494.272,8.408,8.408,0,0,1,4-6.433,40.569,40.569,0,0,0-5.5-.419,40.982,40.982,0,0,0-39.722,31.9,8.684,8.684,0,0,0-.392,17.052,41.018,41.018,0,0,0,40.115,33.691A40.328,40.328,0,0,0,656.324,606.1,35.346,35.346,0,0,1,651.481,603.065Zm-36.34-40.521a3.706,3.706,0,1,1,3.7-3.708A3.709,3.709,0,0,1,615.141,562.544Zm3.47-20.971a34.237,34.237,0,0,0-4.561,8.673,8.656,8.656,0,0,0-6.4,4.238c-2.134-.374-4.266-.787-6.381-1.291A35.408,35.408,0,0,1,618.61,541.573Zm-20.628,16.473c2.832.726,5.693,1.3,8.56,1.815a8.682,8.682,0,0,0,3.962,6.315c-.242,2.252-.431,4.561-.5,6.972h-11.2a8.7,8.7,0,0,0-4.478-5.791A35.488,35.488,0,0,1,597.983,558.046Zm-7.659,20.7a3.706,3.706,0,1,1,3.708-3.7A3.71,3.71,0,0,1,590.324,578.745Zm7.659,15.019a35.367,35.367,0,0,1-3.962-10.875,8.726,8.726,0,0,0,4.193-4.226H610c.075,2.667.3,5.206.59,7.677a8.691,8.691,0,0,0-4.114,5.62C603.632,592.471,600.794,593.042,597.983,593.764Zm3.289,4.852c1.921-.462,3.858-.838,5.8-1.187a8.683,8.683,0,0,0,7.326,5.037,33.061,33.061,0,0,0,4.216,7.773A35.425,35.425,0,0,1,601.272,598.616Zm13.7-1.092a3.706,3.706,0,1,1,3.706-3.7A3.706,3.706,0,0,1,614.968,597.524Zm13.619,13.117c-3.082,0-6.33-3.529-8.826-9.568a8.719,8.719,0,0,0,3.734-5.5,116.945,116.945,0,0,1,15.7.319C636.622,605.068,632.465,610.641,628.587,610.641Z" transform="translate(-581.62 -528.377)" fill="#424953"/>
    </g>
  </g>
</svg>
