<svg xmlns="http://www.w3.org/2000/svg" width="139.811" height="139.809" viewBox="0 0 139.811 139.809"><path d="M295.3,468.317a69.905,69.905,0,1,1-69.905-69.9A69.9,69.9,0,0,1,295.3,468.317Z" transform="translate(-155.492 -398.416)" fill="#eceded"/><g transform="translate(22.612 26.705)"><g transform="translate(4.571 3.387)"><path d="M250.694,456.067H168.865V413.22h81.829v42.847Zm-79.148-2.679h76.467V415.9H171.546v37.486Z" transform="translate(-168.865 -413.22)" fill="#424953"/></g><rect width="90.966" height="10.237" fill="#424953"/><g transform="translate(35.368 22.09)"><path d="M230.273,443.1l0,0-.006-.01-.014-.02-.219-.315-.878-1.264-7.019-10.113c-.161-.226-1.289-1.518-1.77-1.551-1.087-.081-2.163-.122-3.236-.148l-.022.106,2.423,1.886-2.746,1.524,1.39,2.167-4.929,12.151.014.057-.02-.041-.018.045.008-.061L207.345,435.8l1.205-2.275-2.856-1.295,2.268-2.071-.026-.085c-.815.087-1.628.167-2.447.283,0,0-5.982-.524-6.478-.561l-1.687-1.14-9.22-6.23q-2.137,3.192-4.088,6.511l9.615,5.6,9.684,2.041c-.03,7.566.028,15.131.234,22.693,0,.053.022.1.024.161q10.126-.412,20.251-.813a1.548,1.548,0,0,0,.018-.167c-.067-1.214-.159-2.423-.228-3.637.758.39,1.518.785,2.287,1.157l4.472-9.157.043-.085.02-.043C230.363,445.083,230.6,450.238,230.273,443.1Zm-7.248,2.34c-.018-.258-.039-.512-.055-.77l.256.421Z" transform="translate(-184.016 -422.421)" fill="#424953"/><path d="M198.4,434.75l0,.01-.014-.044.013.057Z" transform="translate(-169.178 -409.725)" fill="#424953"/></g><g transform="translate(62.157 29.359)"><path d="M197.779,426.078l-.584,2.483L199.052,430l1.718-1.584L199.988,426Z" transform="translate(-197.195 -425.997)" fill="#424953"/><path d="M197.541,427.453l-.16,14.977,2.112,1.433,1.991-1.59-1.412-14.921Z" transform="translate(-197.003 -424.598)" fill="#424953"/></g><path d="M196.08,423.487c-1.2,3.533.144,7.183,3.006,8.159s6.157-1.114,7.354-4.651-.15-7.189-3.008-8.155S197.28,419.951,196.08,423.487Z" transform="translate(-136.642 -404.276)" fill="#424953"/><g transform="translate(2.089 61.143)"><path d="M176.149,454.883c2.966,0,5.356-2.968,5.356-6.629s-2.39-6.62-5.356-6.62-5.362,2.964-5.362,6.62S173.19,454.883,176.149,454.883Z" transform="translate(-164.398 -441.634)" fill="#424953"/><path d="M186.881,449.318a1.025,1.025,0,0,0-.358-.152,58.9,58.9,0,0,0-14.257,0,1.037,1.037,0,0,0-.311.132l-.047,0a3.138,3.138,0,0,0-3.185,2.962l-1.079,13.619h23.674l-1.077-13.619a3.138,3.138,0,0,0-3.185-2.962A1.506,1.506,0,0,0,186.881,449.318Z" transform="translate(-167.644 -434.303)" fill="#424953"/></g><g transform="translate(29.695 61.143)"><path d="M189.73,454.883c2.966,0,5.362-2.968,5.362-6.629s-2.4-6.62-5.362-6.62-5.364,2.964-5.364,6.62S186.767,454.883,189.73,454.883Z" transform="translate(-177.981 -441.634)" fill="#424953"/><path d="M200.458,449.318a1.031,1.031,0,0,0-.356-.152,58.879,58.879,0,0,0-14.255,0,1.016,1.016,0,0,0-.311.132l-.043,0a3.146,3.146,0,0,0-3.2,2.962l-1.073,13.619h23.668l-1.073-13.619a3.14,3.14,0,0,0-3.187-2.962A1.642,1.642,0,0,0,200.458,449.318Z" transform="translate(-181.225 -434.303)" fill="#424953"/></g><g transform="translate(57.298 61.143)"><path d="M203.306,454.883c2.964,0,5.364-2.968,5.364-6.629s-2.4-6.62-5.364-6.62-5.36,2.964-5.36,6.62S200.347,454.883,203.306,454.883Z" transform="translate(-191.561 -441.634)" fill="#424953"/><path d="M214.036,449.318a1.031,1.031,0,0,0-.356-.152,58.879,58.879,0,0,0-14.255,0,1.059,1.059,0,0,0-.311.132l-.028,0a3.142,3.142,0,0,0-3.2,2.962L194.8,465.874h23.67L217.4,452.256a3.14,3.14,0,0,0-3.187-2.962A1.573,1.573,0,0,0,214.036,449.318Z" transform="translate(-194.805 -434.303)" fill="#424953"/></g><g transform="translate(12.052 17.982)"><rect width="5.809" height="10.513" transform="translate(7.885 9.818)" fill="#fa8807"/><rect width="5.809" height="14.105" transform="translate(0 6.225)" fill="#fa8807"/><rect width="5.809" height="20.331" transform="translate(15.767)" fill="#fa8807"/></g></g></svg>