<svg xmlns="http://www.w3.org/2000/svg" width="139.811" height="139.803" viewBox="0 0 139.811 139.803"><path d="M611.783,587.069a69.905,69.905,0,1,1-69.906-69.9A69.905,69.905,0,0,1,611.783,587.069Z" transform="translate(-471.972 -517.171)" fill="#eceded"/><g transform="translate(24.791 33.777)"><path d="M568.263,533.789h-81.34a2.753,2.753,0,0,0-2.754,2.756V608.23a2.752,2.752,0,0,0,2.754,2.758h81.34a2.755,2.755,0,0,0,2.754-2.758V536.545A2.756,2.756,0,0,0,568.263,533.789Zm-17.228,5.972a3.676,3.676,0,1,1-3.679,3.675A3.672,3.672,0,0,1,551.035,539.761Zm-10.8,0a3.676,3.676,0,1,1-3.673,3.675A3.675,3.675,0,0,1,540.232,539.761ZM565.5,605.474H489.679V553.092H565.5Zm-3.671-58.361a3.676,3.676,0,1,1,3.671-3.677A3.676,3.676,0,0,1,561.834,547.113Z" transform="translate(-484.169 -533.789)" fill="#424953"/><rect width="15.165" height="8.962" transform="translate(35.86 29.611)" fill="#fa8807"/><rect width="15.165" height="8.96" transform="translate(35.86 53.621)" fill="#fa8807"/><rect width="15.161" height="8.96" transform="translate(13.803 53.621)" fill="#fa8807"/><rect width="15.167" height="8.96" transform="translate(57.916 53.621)" fill="#fa8807"/><g transform="translate(20.048 44.546)"><path d="M540.819,558.462H494.032v-2.757h46.787v2.757Z" transform="translate(-494.032 -555.705)" fill="#fa8807"/></g><g transform="translate(42.061 34.089)"><path d="M507.621,571.357h-2.759v-20.8h2.759v20.8Z" transform="translate(-504.862 -550.561)" fill="#fa8807"/></g><g transform="translate(20.004 44.546)"><path d="M496.766,566.045h-2.755v-10.34h2.755v10.34Z" transform="translate(-494.011 -555.705)" fill="#fa8807"/></g><g transform="translate(64.175 44.546)"><path d="M518.5,566.045h-2.759v-10.34H518.5v10.34Z" transform="translate(-515.742 -555.705)" fill="#fa8807"/></g></g></svg>