<svg xmlns="http://www.w3.org/2000/svg" width="139.811" height="139.809" viewBox="0 0 139.811 139.809">
  <g id="Group_48" data-name="Group 48" transform="translate(-155.492 -517.171)">
    <path id="Path_50" data-name="Path 50" d="M295.3,587.072a69.905,69.905,0,1,1-69.905-69.9A69.9,69.9,0,0,1,295.3,587.072Z" fill="#eceded"/>
    <g id="Group_47" data-name="Group 47" transform="translate(182.86 529.224)">
      <g id="Group_45" data-name="Group 45" transform="translate(0 42.662)">
        <path id="Path_51" data-name="Path 51" d="M235.235,552.474v16.737a11.74,11.74,0,0,1-11.724,11.722H189.055a11.737,11.737,0,0,1-11.718-11.722V552.474Zm8.379-8.385H168.956v25.122a20.1,20.1,0,0,0,20.1,20.1h34.456a20.1,20.1,0,0,0,20.1-20.1V544.089Z" transform="translate(-168.956 -544.089)" fill="#424953"/>
        <path id="Path_52" data-name="Path 52" d="M168.956,567.694v4.116c0,1.809,9,3.285,20.1,3.285h34.456c11.1,0,20.1-1.476,20.1-3.285v-4.116Z" transform="translate(-168.956 -519.713)" fill="#424953"/>
        <g id="Group_44" data-name="Group 44" transform="translate(66.425 5.407)">
          <path id="Path_53" data-name="Path 53" d="M215.248,573.976a13.614,13.614,0,1,1,13.611-13.611,13.627,13.627,0,0,1-13.611,13.611Zm0-20.82a7.208,7.208,0,1,0,7.208,7.21,7.218,7.218,0,0,0-7.208-7.21Z" transform="translate(-201.635 -546.749)" fill="#424953"/>
        </g>
      </g>
      <g id="Group_46" data-name="Group 46" transform="translate(25.585)">
        <path id="Path_54" data-name="Path 54" d="M189.24,527.6l.4.252-.112-.2C189.47,527.573,189.362,527.594,189.24,527.6Z" transform="translate(-173.595 -518.462)" fill="#fa8807"/>
        <path id="Path_55" data-name="Path 55" d="M189.643,527.9l.081.016-.137-.07Z" transform="translate(-173.235 -518.2)" fill="#fa8807"/>
        <path id="Path_56" data-name="Path 56" d="M189.874,528.035l-.089-.191c-.006.059-.039.1-.126.079Z" transform="translate(-173.162 -518.202)" fill="#fa8807"/>
        <path id="Path_57" data-name="Path 57" d="M189.659,527.888l0,0-.008-.006Z" transform="translate(-173.166 -518.165)" fill="#fa8807"/>
        <path id="Path_58" data-name="Path 58" d="M192.561,529.548c.413.218,1.321,1,1.051.474a6.727,6.727,0,0,0-1.75-1.705,12.2,12.2,0,0,0-2.047-.927l-.467-.311.543.482c.25.218.951.2,1.47.514.106.035-.226.22-.02.281.4.211.866.327,1.075.634C192.605,529.086,192.38,529.454,192.561,529.548Z" transform="translate(-173.484 -518.993)" fill="#fa8807"/>
        <path id="Path_59" data-name="Path 59" d="M187.732,526.873c.1,0,.315.022.315.022a1.6,1.6,0,0,0,1.087.516l-.057-.2c-.234-.083-.319-.018-.177.114a2.607,2.607,0,0,0-1.161-.7C187.713,526.706,187.644,526.783,187.732,526.873Z" transform="translate(-175.196 -519.455)" fill="#fa8807"/>
        <path id="Path_60" data-name="Path 60" d="M187.579,526.582l.006.01.268.089.009-.03Z" transform="translate(-175.31 -519.505)" fill="#fa8807"/>
        <path id="Path_61" data-name="Path 61" d="M199.7,533.732a2.9,2.9,0,0,0,.132-.982c-.024-.157.366-.071.344-.157.018-.52-.437-.919-.266-1.209l.159-.655-.008-.409-.13-.254a7.917,7.917,0,0,0-1.61-1.705l-.028.02a1.038,1.038,0,0,1,.423,1.061c.02-.171.136-.175.236,0l-.14.171a1.288,1.288,0,0,1-.427-.886s-.177-.1-.266-.136c-.02-.108.1-.148.175-.207l-.179-.175a2.158,2.158,0,0,0,.026.7,3.535,3.535,0,0,1,.661,2.423c.069.065.15.114.085.2l-.187.173-.093.341.006.124,0,.008c.03.067.1.059.167.033l-.157.167-.01-.156v-.008h0v-.043l-.024-.061a2.742,2.742,0,0,1-.335.766l-.045.167c-.031.193-.065.4-.3.453l-.089.128.053-.014-.071.041-.415.543a9.352,9.352,0,0,1-.888,1.021,78.9,78.9,0,0,1-6.944,6.2c-1.425,1.165-2.84,2.159-4.216,3.431-2.85,2.5-2.561,6.305,0,9.279.9,1.25,3.769,2.575,5.3,3.085,2.423.325,2.033-1.213,2.02-1.282-.364-1.325-1.681-1.114-2.911-2.663.913,1.028-1.712-.051-1.679-1.34.106-1.634-1.451-2.872-.272-4.516.378-.352.449-.774.9-1.211,2.553-2.1,5.023-4.712,7.931-7.4a8.291,8.291,0,0,0,1.5-2.315c.348-.531,1-.972,1.266-1.439a4.06,4.06,0,0,0,.772-2.012,7.059,7.059,0,0,1-.813,1.943c-.289.482-.256-.484-.171-.819C199.188,534.006,199.729,533.9,199.7,533.732Zm-3.228,1.7c.028-.28.319-.4.636-.49A1.038,1.038,0,0,1,196.477,535.429Z" transform="translate(-179.721 -517.827)" fill="#fa8807"/>
        <path id="Path_62" data-name="Path 62" d="M184.035,523.728l.614.148-.27-.156A.511.511,0,0,0,184.035,523.728Z" transform="translate(-178.97 -522.491)" fill="#fa8807"/>
        <path id="Path_63" data-name="Path 63" d="M184.727,523.873l.1,0-.212-.022Z" transform="translate(-178.369 -522.33)" fill="#fa8807"/>
        <path id="Path_64" data-name="Path 64" d="M184.782,523.811c.051.053.065.094-.055.094h-.006l.342.043Z" transform="translate(-178.261 -522.367)" fill="#fa8807"/>
        <path id="Path_65" data-name="Path 65" d="M186.46,523.614c.12,0-.014.234.232.222a7.808,7.808,0,0,1,1.5.167c.242,0,.447.356.687.356.537.073,2.01.091,1.242-.094-1.179-.262-1.951-.417-3.019-.612l-2.669-.238-.7-.179.9.315A14.744,14.744,0,0,0,186.46,523.614Z" transform="translate(-179.272 -522.961)" fill="#fa8807"/>
        <path id="Path_66" data-name="Path 66" d="M183.422,523.562a5.684,5.684,0,0,0-1.7-.437c.016.069-.014.142.142.207l.352-.026a3.014,3.014,0,0,0,1.508.293l-.183-.163C183.237,523.4,183.178,523.471,183.422,523.562Z" transform="translate(-181.361 -523.075)" fill="#fa8807"/>
        <path id="Path_67" data-name="Path 67" d="M181.543,523.1l.013.01.345.039,0-.022Z" transform="translate(-181.543 -523.101)" fill="#fa8807"/>
        <path id="Path_68" data-name="Path 68" d="M202.5,528.849a21.38,21.38,0,0,0-3.689-1.521c-.837-.323-1.6-.8-2.256-1.092a18.721,18.721,0,0,0-2.984-.919c1.006.329,1.793.51,2.882.931.709.3-.713.045-1.252-.049-.248-.033-.372-.386-.618-.417a11.237,11.237,0,0,0-1.459-.339c-.24-.025-.057-.238-.175-.254-.7-.2-1.423-.043-1.8-.248l-.837-.388-.541-.187-.4-.059c-.966-.138-2.09-.258-3.1-.417v.024a5.439,5.439,0,0,1,1.618.581c-.226-.116-.157-.171.136-.112l.152.179a2.916,2.916,0,0,1-1.447-.425s-.244-.006-.364-.006c-.144-.071-.1-.144-.1-.218l-.341-.071a5.625,5.625,0,0,0,.831.531,38.544,38.544,0,0,1,3.958,1.179.473.473,0,0,1,.344.022l.24.175.545.185.205.047-.1-.008,1.189.486.272.079c.311.077.632.152.73.325l.209.094-.024-.039.061.051.884.388,1.691.819c3.541,1.868,6.923,3.738,8.9,6.576a4.607,4.607,0,0,1,.8,4.561c-.909,2.732-4.769,4.693-7.683,7.875-1.248,1-2.5,4.545.061,6.336,3.5,1.39,2.423-.656,2.484-.563-.254-1.212-1.34-1.494-.138-3.283-.842,1.2-.644-1.144,1.191-1.986,2.338-1.277,3.858-3.183,6.35-5.734a5.263,5.263,0,0,0,1.073-2.24C211.417,534.909,206.679,531.492,202.5,528.849ZM192.121,525.9l.24.171-.311-.081C192.157,525.993,192.157,525.953,192.121,525.9Zm4.352,1.825a1.773,1.773,0,0,1,.831.514A1.186,1.186,0,0,1,196.473,527.721Z" transform="translate(-177.026 -522.332)" fill="#fa8807"/>
      </g>
    </g>
  </g>
</svg>
