<svg xmlns="http://www.w3.org/2000/svg" width="139.811" height="139.809" viewBox="0 0 139.811 139.809">
  <g id="Group_76" data-name="Group 76" transform="translate(-155.492 -279.66)">
    <path id="Path_72" data-name="Path 72" d="M295.3,349.565A69.905,69.905,0,1,1,225.4,279.66,69.9,69.9,0,0,1,295.3,349.565Z" transform="translate(0 0)" fill="#eceded"/>
    <g id="Group_65" data-name="Group 65" transform="translate(173.259 291.216)">
      <g id="Group_52" data-name="Group 52" transform="translate(0 51.206)">
        <path id="Path_73" data-name="Path 73" d="M194.768,318.784c2.6,6.322.581,13.162-4.545,15.271-5.11,2.11-11.381-1.3-13.987-7.625s-.565-13.159,4.553-15.269S192.156,312.458,194.768,318.784Z" transform="translate(-153.008 -310.537)" fill="#424953"/>
        <g id="Group_50" data-name="Group 50" transform="translate(0 11.607)">
          <path id="Path_74" data-name="Path 74" d="M218.965,356.4c-2.061-4.746-3.1-14.034-4.689-20.831-.628-3.019-2.679-4.315-6.34-4.61a18.647,18.647,0,0,0-2.642-.256l2.667,3.356-2.726,2.84,1.7,4-3.889,22.567.024.108-.028-.081-.016.089,0-.124-7.464-21.636,1.022-4.226-3.147-2.37,1.64-4.216c-3.677-.085-14.82,2.829-14.82,2.829l4.822-13.137q-6.6-2.445-13.361-4.456L165.156,338.1l-.411,1.364-.205.685-.1.341-.051.171-.026.085-.006.022c-1.661-1.744,14.464,15.208,7.643,8.031l.01,0,.043-.012,2.724-.848,5.448-1.7,3.407-1.061q.439,9.226.963,18.438h37.291Z" transform="translate(-164.233 -316.247)" fill="#424953"/>
          <path id="Path_75" data-name="Path 75" d="M183.34,339.537l0-.091,0,.064-.039-.163Z" transform="translate(-144.543 -292.393)" fill="#424953"/>
        </g>
        <g id="Group_51" data-name="Group 51" transform="translate(34.731 25.953)">
          <path id="Path_76" data-name="Path 76" d="M183.948,323.3l1.08,4.454-1.638,2.95-2.071-2.652.347-4.566Z" transform="translate(-181.319 -323.305)" fill="#424953"/>
          <path id="Path_77" data-name="Path 77" d="M184.236,325.8l3.049,27.455-2.091.447-2.162-.1-1.425-27.594Z" transform="translate(-181.021 -320.724)" fill="#424953"/>
        </g>
      </g>
      <g id="Group_53" data-name="Group 53" transform="translate(53.665 26.335)">
        <path id="Path_78" data-name="Path 78" d="M195.451,321.37a4.041,4.041,0,0,0,4.067,4.291,3.59,3.59,0,0,0,3.8-3.612c0-2.522-2.116-3.388-4.141-3.988a18.237,18.237,0,0,1-5.531-2.26,7.365,7.365,0,0,1-3.016-6.021,7.662,7.662,0,0,1,6.665-7.529V298.3h3.907v4.36a3.251,3.251,0,0,1,2.228,1.433v-1.616h3.541v7.379h-4.181a3.508,3.508,0,0,0-3.612-3.427,3.308,3.308,0,0,0-3.537,3.238c0,2.3,1.766,3.086,3.726,3.573a17.851,17.851,0,0,1,5.83,2.293,7.429,7.429,0,0,1,3.24,6.21,8.254,8.254,0,0,1-7.234,8.245v3.878H197.3v-4.519l-.3-.035a3.7,3.7,0,0,1-2.226-1.508v1.543h-3.8V321.37Z" transform="translate(-190.634 -298.301)" fill="#fa8807"/>
      </g>
      <g id="Group_55" data-name="Group 55" transform="translate(40.646 18.544)">
        <rect id="Rectangle_23" data-name="Rectangle 23" width="20.421" height="6.483" transform="translate(10.915 53.657)" fill="#424953"/>
        <path id="Path_79" data-name="Path 79" d="M226.374,315.541a21.073,21.073,0,1,0-42.145,0c0,.693.142,1.35.2,2.025-.2.205.3,8.4,8.244,18.623,2.319,3.092,1.358,9.287,1.358,9.287h22.558c-.016,0-.98-6.2,1.34-9.287,7.946-10.226,8.429-18.418,8.24-18.623A20.146,20.146,0,0,0,226.374,315.541Zm-3.716.852-.26,2.445.039.037c-.39,2.266-1.87,7.994-7.37,15.086a13.983,13.983,0,0,0-2.313,7.883h-14.9a13.848,13.848,0,0,0-2.283-7.836c-5.533-7.129-7.019-12.867-7.4-15.133l.041-.037-.262-2.445a5.842,5.842,0,0,1-.079-.852,17.436,17.436,0,1,1,34.872,0A6.464,6.464,0,0,1,222.659,316.392Z" transform="translate(-184.229 -294.468)" fill="#424953"/>
        <path id="Path_80" data-name="Path 80" d="M191.367,324.529v1.148a3.064,3.064,0,0,0,3.065,3.061h6.994a3.064,3.064,0,0,0,3.067-3.061v-1.148Z" transform="translate(-176.858 -263.425)" fill="#424953"/>
        <rect id="Rectangle_24" data-name="Rectangle 24" width="22.2" height="1.782" transform="translate(9.973 52.764)" fill="#424953"/>
        <g id="Group_54" data-name="Group 54" transform="translate(9.973 56.166)">
          <rect id="Rectangle_25" data-name="Rectangle 25" width="22.2" height="1.697" fill="#424953"/>
          <path id="Path_81" data-name="Path 81" d="M189.161,323.734c.146,2.236,2.358,4.021,5.13,4.021h11.834c2.768,0,4.988-1.785,5.13-4.021Z" transform="translate(-189.109 -320.412)" fill="#424953"/>
        </g>
      </g>
      <g id="Group_64" data-name="Group 64" transform="translate(22.777)">
        <g id="Group_56" data-name="Group 56" transform="translate(37.85)">
          <path id="Path_82" data-name="Path 82" d="M196.291,297a2.235,2.235,0,0,1-2.232-2.234v-7.192a2.232,2.232,0,0,1,4.464,0v7.192A2.233,2.233,0,0,1,196.291,297Z" transform="translate(-194.059 -285.345)" fill="#fa8807"/>
        </g>
        <g id="Group_57" data-name="Group 57" transform="translate(19.345 4.346)">
          <path id="Path_83" data-name="Path 83" d="M190.781,298.175a2.232,2.232,0,0,1-1.935-1.118l-3.592-6.228a2.232,2.232,0,1,1,3.866-2.23l3.592,6.228a2.232,2.232,0,0,1-1.931,3.348Z" transform="translate(-184.955 -287.483)" fill="#fa8807"/>
        </g>
        <g id="Group_58" data-name="Group 58" transform="translate(5.488 17.363)">
          <path id="Path_84" data-name="Path 84" d="M186.6,301.95a2.222,2.222,0,0,1-1.114-.3l-6.23-3.6a2.233,2.233,0,0,1,2.234-3.866l6.228,3.6a2.233,2.233,0,0,1-1.118,4.167Z" transform="translate(-178.138 -293.887)" fill="#fa8807"/>
        </g>
        <g id="Group_59" data-name="Group 59" transform="translate(0 35.561)">
          <path id="Path_85" data-name="Path 85" d="M184.863,307.306H177.67a2.233,2.233,0,0,1,0-4.466h7.194a2.233,2.233,0,0,1,0,4.466Z" transform="translate(-175.438 -302.84)" fill="#fa8807"/>
        </g>
        <g id="Group_60" data-name="Group 60" transform="translate(61.699 52.447)">
          <path id="Path_86" data-name="Path 86" d="M214.248,319.208a2.222,2.222,0,0,1-1.114-.3l-6.226-3.6a2.232,2.232,0,1,1,2.234-3.864l6.224,3.6a2.232,2.232,0,0,1-1.118,4.165Z" transform="translate(-205.792 -311.147)" fill="#fa8807"/>
        </g>
        <g id="Group_61" data-name="Group 61" transform="translate(66.224 37.842)">
          <path id="Path_87" data-name="Path 87" d="M217.439,308.428h-7.19a2.233,2.233,0,0,1,0-4.466h7.19a2.233,2.233,0,0,1,0,4.466Z" transform="translate(-208.018 -303.962)" fill="#fa8807"/>
        </g>
        <g id="Group_62" data-name="Group 62" transform="translate(62.841 19.34)">
          <path id="Path_88" data-name="Path 88" d="M208.588,302.92a2.233,2.233,0,0,1-1.12-4.165l6.228-3.6a2.232,2.232,0,1,1,2.232,3.866l-6.226,3.6a2.235,2.235,0,0,1-1.114.3Z" transform="translate(-206.354 -294.86)" fill="#fa8807"/>
        </g>
        <g id="Group_63" data-name="Group 63" transform="translate(52.455 5.482)">
          <path id="Path_89" data-name="Path 89" d="M203.476,298.74a2.234,2.234,0,0,1-1.933-3.348l3.59-6.232A2.232,2.232,0,1,1,209,291.39l-3.588,6.23a2.235,2.235,0,0,1-1.937,1.12Z" transform="translate(-201.244 -288.042)" fill="#fa8807"/>
        </g>
      </g>
    </g>
  </g>
</svg>
